<svg xmlns="http://www.w3.org/2000/svg" xmlns:xlink="http://www.w3.org/1999/xlink" style="isolation:isolate" viewBox="0 0 32 32" width="32" height="32"><g clip-path="url(#_clipPath_ZWtMU6NaURkrRqVrgxX4KGqGF3bnuoPd)"><path d=" M 16 32.25 C 7.025 32.25 -0.25 24.975 -0.25 16 C -0.25 7.025 7.025 -0.25 16 -0.25 C 24.975 -0.25 32.25 7.025 32.25 16 C 32.25 24.975 24.975 32.25 16 32.25 Z "/><path d=" M 14.75 14.75 L 14.75 8.5 C 14.75 7.81 15.31 7.25 16 7.25 C 16.69 7.25 17.25 7.81 17.25 8.5 L 17.25 14.75 L 23.5 14.75 C 24.19 14.75 24.75 15.31 24.75 16 C 24.75 16.69 24.19 17.25 23.5 17.25 L 17.25 17.25 L 17.25 23.5 C 17.25 24.19 16.69 24.75 16 24.75 C 15.31 24.75 14.75 24.19 14.75 23.5 L 14.75 17.25 L 8.5 17.25 C 7.81 17.25 7.25 16.69 7.25 16 C 7.25 15.31 7.81 14.75 8.5 14.75 L 14.75 14.75 Z " fill-rule="evenodd" fill="rgb(255,255,255)"/></g></svg>
