<svg xmlns="http://www.w3.org/2000/svg" xmlns:xlink="http://www.w3.org/1999/xlink" style="isolation:isolate" viewBox="0 0 16 16" width="16" height="16"><g clip-path="url(#_clipPath_Ia3Z7dePxO6oVQMlIl87dj3gfHT3009t)"><path d=" M 6.875 6.875 L 6.875 1.25 C 6.875 0.629 7.379 0.125 8 0.125 C 8.621 0.125 9.125 0.629 9.125 1.25 L 9.125 6.875 L 14.75 6.875 C 15.371 6.875 15.875 7.379 15.875 8 C 15.875 8.621 15.371 9.125 14.75 9.125 L 9.125 9.125 L 9.125 14.75 C 9.125 15.371 8.621 15.875 8 15.875 C 7.379 15.875 6.875 15.371 6.875 14.75 L 6.875 9.125 L 1.25 9.125 C 0.629 9.125 0.125 8.621 0.125 8 C 0.125 7.379 0.629 6.875 1.25 6.875 L 6.875 6.875 Z "/></g></svg>
