<svg width="16px" height="18px" viewBox="0 0 16 18" version="1.1" xmlns="http://www.w3.org/2000/svg" xmlns:xlink="http://www.w3.org/1999/xlink">
    <g id="Symbols" stroke="none" stroke-width="1" fill="none" fill-rule="evenodd">
        <g id="left-nav/all-contact" transform="translate(-34.000000, -177.000000)" fill="#5D8DF8">
            <g id="icon/all" transform="translate(30.000000, 174.000000)">
                <g id="all">
                    <path d="M9.57560117,12.3739483 C8.03950486,11.5206972 7,9.88174327 7,8 C7,5.23857625 9.23857625,3 12,3 C14.7614237,3 17,5.23857625 17,8 C17,9.88174327 15.9604951,11.5206972 14.4243988,12.3739483 C17.6574776,13.4008628 20,16.4268687 20,20 C20,20.5522847 19.5522847,21 19,21 C18.4477153,21 18,20.5522847 18,20 C18,16.6862915 15.3137085,14 12,14 C8.6862915,14 6,16.6862915 6,20 C6,20.5522847 5.55228475,21 5,21 C4.44771525,21 4,20.5522847 4,20 C4,16.4268687 6.34252236,13.4008628 9.57560117,12.3739483 Z M12,11 C13.6568542,11 15,9.65685425 15,8 C15,6.34314575 13.6568542,5 12,5 C10.3431458,5 9,6.34314575 9,8 C9,9.65685425 10.3431458,11 12,11 Z" id="Oval" fill-rule="nonzero"></path>
                </g>
            </g>
        </g>
    </g>
</svg>
