<svg xmlns="http://www.w3.org/2000/svg" xmlns:xlink="http://www.w3.org/1999/xlink" style="isolation:isolate" viewBox="0 0 16 18" width="16" height="18"><g clip-path="url(#_clipPath_LM0rM5Ge3N29VCz2AjpsbawtoDh9OQr3)"><path d=" M 5.576 9.374 C 4.04 8.521 3 6.882 3 5 C 3 2.239 5.239 0 8 0 C 10.761 0 13 2.239 13 5 C 13 6.882 11.96 8.521 10.424 9.374 C 13.657 10.401 16 13.427 16 17 C 16 17.552 15.552 18 15 18 C 14.448 18 14 17.552 14 17 C 14 13.686 11.314 11 8 11 C 4.686 11 2 13.686 2 17 C 2 17.552 1.552 18 1 18 C 0.448 18 0 17.552 0 17 C 0 13.427 2.343 10.401 5.576 9.374 Z  M 8 8 C 9.657 8 11 6.657 11 5 C 11 3.343 9.657 2 8 2 C 6.343 2 5 3.343 5 5 C 5 6.657 6.343 8 8 8 Z "/></g></svg>
