<svg xmlns="http://www.w3.org/2000/svg" xmlns:xlink="http://www.w3.org/1999/xlink" style="isolation:isolate" viewBox="0 0 24 24" width="24" height="24"><g clip-path="url(#_clipPath_TgjNyqqRkcnlS7R79FxtLfu0t293TUdc)"><path d=" M 12 23.667 C 5.561 23.667 0.333 18.439 0.333 12 C 0.333 5.561 5.561 0.333 12 0.333 C 18.439 0.333 23.667 5.561 23.667 12 C 23.667 18.439 18.439 23.667 12 23.667 Z "/><path d=" M 16.125 15.158 C 16.58 15.614 17.319 15.614 17.775 15.158 C 18.23 14.703 18.23 13.964 17.775 13.508 L 12.825 8.559 C 12.369 8.103 11.631 8.103 11.175 8.559 L 6.225 13.508 C 5.77 13.964 5.77 14.703 6.225 15.158 C 6.681 15.614 7.42 15.614 7.875 15.158 L 12 11.034 L 16.125 15.158 Z " fill="rgb(240,242,245)"/></g></svg>
