<svg xmlns="http://www.w3.org/2000/svg" xmlns:xlink="http://www.w3.org/1999/xlink" style="isolation:isolate" viewBox="0 0 24 24" width="24" height="24"><defs><clipPath id="_clipPath_jeVMOUP65GSX0DKt8sH9g9whE02ChqGd"><rect width="24" height="24"/></clipPath></defs><g clip-path="url(#_clipPath_jeVMOUP65GSX0DKt8sH9g9whE02ChqGd)"><path d=" M 23.667 12 C 23.667 18.439 18.439 23.667 12 23.667 C 5.561 23.667 0.333 18.439 0.333 12 C 0.333 5.561 5.561 0.333 12 0.333 C 18.439 0.333 23.667 5.561 23.667 12 Z "/><path d=" M 15.158 7.875 C 15.614 7.42 15.614 6.681 15.158 6.225 C 14.703 5.77 13.964 5.77 13.508 6.225 L 8.559 11.175 C 8.103 11.631 8.103 12.369 8.559 12.825 L 13.508 17.775 C 13.964 18.23 14.703 18.23 15.158 17.775 C 15.614 17.319 15.614 16.58 15.158 16.125 L 11.034 12 L 15.158 7.875 Z " fill="rgb(240,242,245)"/></g></svg>
