<svg width="24px" height="24px" viewBox="0 0 24 24" version="1.1" xmlns="http://www.w3.org/2000/svg" xmlns:xlink="http://www.w3.org/1999/xlink">
    <g id="icon/previous" stroke="none" stroke-width="1" fill="none" fill-rule="evenodd">
        <g id="Group-5">
            <g id="box-copy-7">
                <rect id="Rectangle" x="0" y="0" width="24" height="24"></rect>
            </g>
            <g id="Group-7-Copy" transform="translate(12.000000, 12.000000) scale(-1, 1) translate(-12.000000, -12.000000) translate(2.000000, 2.000000)">
                <circle id="Oval-3" fill="#D1D6DE" cx="10" cy="10" r="10"></circle>
                <path d="M6,7 C6,6.44771525 5.55228475,6 5,6 C4.44771525,6 4,6.44771525 4,7 L4,13 C4,13.5522847 4.44771525,14 5,14 L11,14 C11.5522847,14 12,13.5522847 12,13 C12,12.4477153 11.5522847,12 11,12 L6,12 L6,7 Z" id="group-drop-down" fill="#F0F2F5" fill-rule="nonzero" transform="translate(8.000000, 10.000000) rotate(-135.000000) translate(-8.000000, -10.000000) "></path>
            </g>
        </g>
    </g>
</svg>
