<svg xmlns="http://www.w3.org/2000/svg" xmlns:xlink="http://www.w3.org/1999/xlink" style="isolation:isolate" viewBox="0 0 24 24" width="24" height="24"><g clip-path="url(#_clipPath_b1oAh95xGfGlvZvt7uNISsKl4LBYEVjJ)"><path d=" M 12 0.333 C 18.439 0.333 23.667 5.561 23.667 12 C 23.667 18.439 18.439 23.667 12 23.667 C 5.561 23.667 0.333 18.439 0.333 12 C 0.333 5.561 5.561 0.333 12 0.333 Z "/><path d=" M 7.875 8.842 C 7.42 8.386 6.681 8.386 6.225 8.842 C 5.77 9.297 5.77 10.036 6.225 10.492 L 11.175 15.441 C 11.631 15.897 12.369 15.897 12.825 15.441 L 17.775 10.492 C 18.23 10.036 18.23 9.297 17.775 8.842 C 17.319 8.386 16.58 8.386 16.125 8.842 L 12 12.966 L 7.875 8.842 Z " fill="rgb(240,242,245)"/></g></svg>
