<svg xmlns="http://www.w3.org/2000/svg" xmlns:xlink="http://www.w3.org/1999/xlink" style="isolation:isolate" viewBox="0 0 28 28" width="28" height="28"><g clip-path="url(#_clipPath_9uIsRSd1noRePrbJk7yrE9umtcNAKrZE)"><rect x="12.937" y="3.375" width="2.125" height="2.125" transform="matrix(1,0,0,1,0,0)"/><path d=" M 7.625 23.031 C 8.494 23.031 9.265 22.614 9.75 21.969 C 10.235 22.614 11.006 23.031 11.875 23.031 C 12.744 23.031 13.515 22.614 14 21.969 C 14.485 22.614 15.256 23.031 16.125 23.031 C 16.994 23.031 17.765 22.614 18.25 21.969 C 18.735 22.614 19.506 23.031 20.375 23.031 C 21.244 23.031 22.015 22.614 22.5 21.969 C 22.985 22.614 23.756 23.031 24.625 23.031 C 26.092 23.031 27.281 21.842 27.281 20.375 L 26.219 20.375 C 26.219 21.255 25.505 21.969 24.625 21.969 C 23.745 21.969 23.031 21.255 23.031 20.375 C 23.031 19.667 21.969 19.667 21.969 20.375 C 21.969 21.255 21.255 21.969 20.375 21.969 C 19.495 21.969 18.781 21.255 18.781 20.375 C 18.781 19.667 17.719 19.667 17.719 20.375 C 17.719 21.255 17.005 21.969 16.125 21.969 C 15.245 21.969 14.531 21.255 14.531 20.375 C 14.531 19.667 13.469 19.667 13.469 20.375 C 13.469 21.255 12.755 21.969 11.875 21.969 C 10.995 21.969 10.281 21.255 10.281 20.375 C 10.281 19.667 9.219 19.667 9.219 20.375 C 9.219 21.255 8.505 21.969 7.625 21.969 C 6.745 21.969 6.031 21.255 6.031 20.375 C 6.031 19.667 4.969 19.667 4.969 20.375 C 4.969 21.255 4.255 21.969 3.375 21.969 C 2.495 21.969 1.781 21.255 1.781 20.375 L 0.719 20.375 C 0.719 21.842 1.908 23.031 3.375 23.031 C 4.244 23.031 5.015 22.614 5.5 21.969 C 5.985 22.614 6.756 23.031 7.625 23.031 Z "/><path d=" M 11.875 14.531 C 12.744 14.531 13.515 14.114 14 13.469 C 14.485 14.114 15.256 14.531 16.125 14.531 C 16.994 14.531 17.765 14.114 18.25 13.469 C 18.735 14.114 19.506 14.531 20.375 14.531 C 21.842 14.531 23.031 13.342 23.031 11.875 L 21.969 11.875 C 21.969 12.755 21.255 13.469 20.375 13.469 C 19.495 13.469 18.781 12.755 18.781 11.875 C 18.781 11.167 17.719 11.167 17.719 11.875 C 17.719 12.755 17.005 13.469 16.125 13.469 C 15.245 13.469 14.531 12.755 14.531 11.875 C 14.531 11.167 13.469 11.167 13.469 11.875 C 13.469 12.755 12.755 13.469 11.875 13.469 C 10.995 13.469 10.281 12.755 10.281 11.875 C 10.281 11.167 9.219 11.167 9.219 11.875 C 9.219 12.755 8.505 13.469 7.625 13.469 C 6.745 13.469 6.031 12.755 6.031 11.875 L 4.969 11.875 C 4.969 13.342 6.158 14.531 7.625 14.531 C 8.494 14.531 9.265 14.114 9.75 13.469 C 10.235 14.114 11.006 14.531 11.875 14.531 Z "/><path d=" M 25.687 25.687 L 25.687 19.312 C 25.687 18.726 25.212 18.25 24.625 18.25 L 3.375 18.25 C 2.788 18.25 2.312 18.726 2.312 19.312 L 2.312 25.687 L 25.687 25.687 Z  M 3.375 16.125 L 24.625 16.125 C 26.385 16.125 27.812 17.552 27.812 19.312 L 27.812 26.75 C 27.812 27.337 27.337 27.812 26.75 27.812 L 1.25 27.812 C 0.663 27.812 0.187 27.337 0.187 26.75 L 0.187 19.312 C 0.187 17.552 1.615 16.125 3.375 16.125 Z "/><path d=" M 6.562 16.125 L 6.562 7.625 L 21.437 7.625 L 21.437 16.125 C 21.437 16.712 21.913 17.187 22.5 17.187 C 23.087 17.187 23.562 16.712 23.562 16.125 L 23.562 7.625 C 23.562 6.451 22.611 5.5 21.437 5.5 L 6.562 5.5 C 5.389 5.5 4.437 6.451 4.437 7.625 L 4.437 16.125 C 4.437 16.712 4.913 17.187 5.5 17.187 C 6.087 17.187 6.562 16.712 6.562 16.125 Z "/><path d=" M 14 2.313 C 13.413 2.313 12.937 1.837 12.937 1.25 C 12.937 1.25 15.062 1.25 15.062 1.25 C 15.062 1.837 14.587 2.313 14 2.313 Z  M 12.937 1.25 L 14 -0.875 L 15.062 1.25 L 12.937 1.25 Z " fill-rule="evenodd"/></g></svg>
