<svg width="28px" height="28px" viewBox="0 0 28 28" version="1.1" xmlns="http://www.w3.org/2000/svg" xmlns:xlink="http://www.w3.org/1999/xlink">
    <g id="icon/birthday" stroke="none" stroke-width="1" fill="none" fill-rule="evenodd">
        <g id="Group-20">
            <rect id="Rectangle-3-Copy-9" x="0" y="0" width="28" height="28"></rect>
            <g id="Group-8" transform="translate(2.625000, 1.750000)" fill="#769CEE">
                <rect id="Rectangle-27" x="10.5" y="3.5" width="1.75" height="1.75"></rect>
                <path d="M6.125,19.6875 C6.84057454,19.6875 7.4758999,19.3439124 7.875,18.8127133 C8.2741001,19.3439124 8.90942546,19.6875 9.625,19.6875 C10.3405745,19.6875 10.9758999,19.3439124 11.375,18.8127133 C11.7741001,19.3439124 12.4094255,19.6875 13.125,19.6875 C13.8405745,19.6875 14.4758999,19.3439124 14.875,18.8127133 C15.2741001,19.3439124 15.9094255,19.6875 16.625,19.6875 C17.3405745,19.6875 17.9758999,19.3439124 18.375,18.8127133 C18.7741001,19.3439124 19.4094255,19.6875 20.125,19.6875 C21.3331229,19.6875 22.3125,18.7081229 22.3125,17.5 L21.4375,17.5 C21.4375,18.2248737 20.8498737,18.8125 20.125,18.8125 C19.4001263,18.8125 18.8125,18.2248737 18.8125,17.5 C18.8125,16.9166667 17.9375,16.9166667 17.9375,17.5 C17.9375,18.2248737 17.3498737,18.8125 16.625,18.8125 C15.9001263,18.8125 15.3125,18.2248737 15.3125,17.5 C15.3125,16.9166667 14.4375,16.9166667 14.4375,17.5 C14.4375,18.2248737 13.8498737,18.8125 13.125,18.8125 C12.4001263,18.8125 11.8125,18.2248737 11.8125,17.5 C11.8125,16.9166667 10.9375,16.9166667 10.9375,17.5 C10.9375,18.2248737 10.3498737,18.8125 9.625,18.8125 C8.90012627,18.8125 8.3125,18.2248737 8.3125,17.5 C8.3125,16.9166667 7.4375,16.9166667 7.4375,17.5 C7.4375,18.2248737 6.84987373,18.8125 6.125,18.8125 C5.40012627,18.8125 4.8125,18.2248737 4.8125,17.5 C4.8125,16.9166667 3.9375,16.9166667 3.9375,17.5 C3.9375,18.2248737 3.34987373,18.8125 2.625,18.8125 C1.90012627,18.8125 1.3125,18.2248737 1.3125,17.5 L0.4375,17.5 C0.4375,18.7081229 1.41687711,19.6875 2.625,19.6875 C3.34057454,19.6875 3.9758999,19.3439124 4.375,18.8127133 C4.7741001,19.3439124 5.40942546,19.6875 6.125,19.6875 Z" id="Oval-7" fill-rule="nonzero"></path>
                <path d="M9.625,12.6875 C10.3405745,12.6875 10.9758999,12.3439124 11.375,11.8127133 C11.7741001,12.3439124 12.4094255,12.6875 13.125,12.6875 C13.8405745,12.6875 14.4758999,12.3439124 14.875,11.8127133 C15.2741001,12.3439124 15.9094255,12.6875 16.625,12.6875 C17.8331229,12.6875 18.8125,11.7081229 18.8125,10.5 L17.9375,10.5 C17.9375,11.2248737 17.3498737,11.8125 16.625,11.8125 C15.9001263,11.8125 15.3125,11.2248737 15.3125,10.5 C15.3125,9.91666667 14.4375,9.91666667 14.4375,10.5 C14.4375,11.2248737 13.8498737,11.8125 13.125,11.8125 C12.4001263,11.8125 11.8125,11.2248737 11.8125,10.5 C11.8125,9.91666667 10.9375,9.91666667 10.9375,10.5 C10.9375,11.2248737 10.3498737,11.8125 9.625,11.8125 C8.90012627,11.8125 8.3125,11.2248737 8.3125,10.5 C8.3125,9.91666667 7.4375,9.91666667 7.4375,10.5 C7.4375,11.2248737 6.84987373,11.8125 6.125,11.8125 C5.40012627,11.8125 4.8125,11.2248737 4.8125,10.5 L3.9375,10.5 C3.9375,11.7081229 4.91687711,12.6875 6.125,12.6875 C6.84057454,12.6875 7.4758999,12.3439124 7.875,11.8127133 C8.2741001,12.3439124 8.90942546,12.6875 9.625,12.6875 Z" id="Oval-7" fill-rule="nonzero"></path>
                <path d="M21,21.875 L21,16.625 C21,16.1417508 20.6082492,15.75 20.125,15.75 L2.625,15.75 C2.14175084,15.75 1.75,16.1417508 1.75,16.625 L1.75,21.875 L21,21.875 Z M2.625,14 L20.125,14 C21.5747475,14 22.75,15.1752525 22.75,16.625 L22.75,22.75 C22.75,23.2332492 22.3582492,23.625 21.875,23.625 L0.875,23.625 C0.391750844,23.625 0,23.2332492 0,22.75 L0,16.625 C0,15.1752525 1.17525253,14 2.625,14 Z" id="Rectangle-26" fill-rule="nonzero"></path>
                <path d="M5.25,14 L5.25,7 L17.5,7 L17.5,14 C17.5,14.4832492 17.8917508,14.875 18.375,14.875 C18.8582492,14.875 19.25,14.4832492 19.25,14 L19.25,7 C19.25,6.03350169 18.4664983,5.25 17.5,5.25 L5.25,5.25 C4.28350169,5.25 3.5,6.03350169 3.5,7 L3.5,14 C3.5,14.4832492 3.89175084,14.875 4.375,14.875 C4.85824916,14.875 5.25,14.4832492 5.25,14 Z" id="Rectangle-26-Copy" fill-rule="nonzero"></path>
                <path d="M11.375,2.625 C10.8917508,2.625 10.5,2.23324916 10.5,1.75 C10.5,1.75 12.25,1.75 12.25,1.75 C12.25,2.23324916 11.8582492,2.625 11.375,2.625 Z M10.5,1.75 L11.375,0 L12.25,1.75 L10.5,1.75 Z" id="Combined-Shape"></path>
            </g>
        </g>
    </g>
</svg>
