<svg xmlns="http://www.w3.org/2000/svg" xmlns:xlink="http://www.w3.org/1999/xlink" style="isolation:isolate" viewBox="0 0 19 22" width="19" height="22"><g clip-path="url(#_clipPath_miFbdJbFMlce8ON58u7mjMSfwhaOxKbz)"><path d=" M 2.25 4.243 L 2.25 17.757 C 2.25 18.373 2.752 18.875 3.368 18.875 L 16.882 18.875 C 17.498 18.875 18 18.373 18 17.757 L 18 4.243 C 18 3.627 17.498 3.125 16.882 3.125 L 3.368 3.125 C 2.752 3.125 2.25 3.627 2.25 4.243 Z  M 1.125 4.243 C 1.125 3.004 2.131 2 3.368 2 L 16.882 2 C 18.121 2 19.125 3.006 19.125 4.243 L 19.125 17.757 C 19.125 18.996 18.119 20 16.882 20 L 3.368 20 C 2.129 20 1.125 18.994 1.125 17.757 L 1.125 4.243 L 1.125 4.243 L 1.125 4.243 Z " fill="rgb(174,185,206)"/></g></svg>
