<svg width="19px" height="22px" viewBox="0 0 19 22" version="1.1" xmlns="http://www.w3.org/2000/svg" xmlns:xlink="http://www.w3.org/1999/xlink">
    <g id="icon/check-box/checked" stroke="none" stroke-width="1" fill="none" fill-rule="evenodd">
        <g id="Group-3" fill-rule="nonzero">
            <path d="M2,6.99406028 C2,5.8927712 2.89451376,5 3.99406028,5 L16.0059397,5 C17.1072288,5 18,5.89451376 18,6.99406028 L18,19.0059397 C18,20.1072288 17.1054862,21 16.0059397,21 L3.99406028,21 C2.8927712,21 2,20.1054862 2,19.0059397 L2,6.99406028 Z" id="Rectangle-6" fill="#FFFFFF"></path>
            <path d="M3,6.99406028 L3,19.0059397 C3,19.5539384 3.44579254,20 3.99406028,20 L16.0059397,20 C16.5539384,20 17,19.5542075 17,19.0059397 L17,6.99406028 C17,6.44606163 16.5542075,6 16.0059397,6 L3.99406028,6 C3.44606163,6 3,6.44579254 3,6.99406028 Z M2,6.99406028 C2,5.8927712 2.89451376,5 3.99406028,5 L16.0059397,5 C17.1072288,5 18,5.89451376 18,6.99406028 L18,19.0059397 C18,20.1072288 17.1054862,21 16.0059397,21 L3.99406028,21 C2.8927712,21 2,20.1054862 2,19.0059397 L2,6.99406028 Z" id="Rectangle-6" fill="#AEB9CE"></path>
            <path d="M5.9246212,15 C5.37233645,15 4.9246212,15.4477153 4.9246212,16 C4.9246212,16.5522847 5.37233645,17 5.9246212,17 L12.9246212,17 C13.476906,17 13.9246212,16.5522847 13.9246212,16 L13.9246212,2 C13.9246212,1.44771525 13.476906,1 12.9246212,1 C12.3723365,1 11.9246212,1.44771525 11.9246212,2 L11.9246212,15 L5.9246212,15 Z" id="Path-11" fill="#979797" transform="translate(9.424621, 9.000000) rotate(45.000000) translate(-9.424621, -9.000000) "></path>
        </g>
    </g>
</svg>
