<svg xmlns="http://www.w3.org/2000/svg" xmlns:xlink="http://www.w3.org/1999/xlink" style="isolation:isolate" viewBox="0 0 18 18" width="18" height="18"><g clip-path="url(#_clipPath_08Z4RmzQZFlmFBN01Gl1Ysr7vMQvhhQ9)"><path d=" M 9.333 7.683 L 13.458 3.559 C 13.914 3.103 14.652 3.103 15.108 3.559 C 15.564 4.014 15.564 4.753 15.108 5.209 L 10.983 9.333 L 15.108 13.458 C 15.564 13.914 15.564 14.652 15.108 15.108 C 14.652 15.564 13.914 15.564 13.458 15.108 L 9.333 10.983 L 5.209 15.108 C 4.753 15.564 4.014 15.564 3.559 15.108 C 3.103 14.652 3.103 13.914 3.559 13.458 L 7.683 9.333 L 3.559 5.209 C 3.103 4.753 3.103 4.014 3.559 3.559 C 4.014 3.103 4.753 3.103 5.209 3.559 L 9.333 7.683 Z "/></g></svg>
