<svg width="32px" height="32px" viewBox="0 0 32 32" version="1.1" xmlns="http://www.w3.org/2000/svg" xmlns:xlink="http://www.w3.org/1999/xlink">
    <g id="icon/contacts" stroke="none" stroke-width="1" fill="none" fill-rule="evenodd">
        <g id="Group-15">
            <rect id="Rectangle-3-Copy-2" x="0" y="0" width="32" height="32"></rect>
            <g id="contact-icon" transform="translate(2.000000, 4.000000)">
                <path d="M2,19 L1,19 C0.44771525,19 6.76353751e-17,18.5522847 0,18 C-6.76353751e-17,17.4477153 0.44771525,17 1,17 L2,17 L2,13 L1,13 C0.44771525,13 6.76353751e-17,12.5522847 0,12 C-6.76353751e-17,11.4477153 0.44771525,11 1,11 L2,11 L2,7 L1,7 C0.44771525,7 6.76353751e-17,6.55228475 0,6 C-6.76353751e-17,5.44771525 0.44771525,5 1,5 L2,5 L2,2 C2,0.8954305 2.8954305,2.02906125e-16 4,0 L24,0 C25.1045695,-2.02906125e-16 26,0.8954305 26,2 L26,22 C26,23.1045695 25.1045695,24 24,24 L4,24 C2.8954305,24 2,23.1045695 2,22 L2,19 Z" id="Combined-Shape" fill="#5D8DF8"></path>
                <g id="Group-2-Copy-4" transform="translate(10.000000, 6.000000)" fill="#FFFFFF">
                    <path d="M12,12 C12,8.6862915 9.3137085,6 6,6 C2.6862915,6 0,8.6862915 0,12 L12,12 Z" id="Oval-2"></path>
                    <circle id="Oval" cx="6" cy="3" r="3"></circle>
                </g>
                <rect id="Rectangle-5" fill="#FFFFFF" x="5" y="0" width="2" height="24"></rect>
            </g>
        </g>
    </g>
</svg>
