<svg width="24px" height="24px" viewBox="0 0 24 24" version="1.1" xmlns="http://www.w3.org/2000/svg" xmlns:xlink="http://www.w3.org/1999/xlink">
    <g id="icon/attachment" stroke="none" stroke-width="1" fill="none" fill-rule="evenodd">
        <g id="Group-25">
            <g id="Group-24">
                <rect id="Rectangle-3-Copy-14" x="0" y="0" width="24" height="24"></rect>
            </g>
        </g>
        <g id="Group-27" transform="translate(3.000000, 1.000000)" fill="#5D8DF8">
            <polygon id="Path-2" points="7 1 7 7 1 7"></polygon>
            <path d="M2,6.82842712 L2,20 L16,20 L16,2 L6.82842712,2 L2,6.82842712 Z M6,0 L16,0 C17.1045695,0 18,0.8954305 18,2 L18,20 C18,21.1045695 17.1045695,22 16,22 L2,22 C0.8954305,22 0,21.1045695 0,20 L0,6 L6,0 Z" id="Rectangle-6" fill-rule="nonzero"></path>
            <rect id="Rectangle-7" x="4" y="9" width="10" height="1" rx="0.5"></rect>
            <rect id="Rectangle-7-Copy" x="4" y="12" width="10" height="1" rx="0.5"></rect>
            <rect id="Rectangle-7-Copy-2" x="4" y="15" width="10" height="1" rx="0.5"></rect>
        </g>
    </g>
</svg>
