<svg xmlns="http://www.w3.org/2000/svg" xmlns:xlink="http://www.w3.org/1999/xlink" style="isolation:isolate" viewBox="0 0 24 24" width="24" height="24"><g clip-path="url(#_clipPath_57jjJb4DJZ0ULw08c48Zq1EqWSGl3HjY)"><path d=" M 9.833 1.167 L 9.833 7.667 L 3.333 7.667 L 9.833 1.167 Z " fill-rule="evenodd"/><path d=" M 4.417 7.481 L 4.417 21.75 L 19.583 21.75 L 19.583 2.25 L 9.647 2.25 L 4.417 7.481 Z  M 8.75 0.083 L 19.583 0.083 C 20.78 0.083 21.75 1.053 21.75 2.25 L 21.75 21.75 C 21.75 22.947 20.78 23.917 19.583 23.917 L 4.417 23.917 C 3.22 23.917 2.25 22.947 2.25 21.75 L 2.25 6.583 L 8.75 0.083 Z "/><path d="M 7.125 9.833 L 16.875 9.833 C 17.174 9.833 17.417 10.076 17.417 10.375 L 17.417 10.375 C 17.417 10.674 17.174 10.917 16.875 10.917 L 7.125 10.917 C 6.826 10.917 6.583 10.674 6.583 10.375 L 6.583 10.375 C 6.583 10.076 6.826 9.833 7.125 9.833 Z" style="stroke:none;stroke-miterlimit:10;"/><path d="M 7.125 13.083 L 16.875 13.083 C 17.174 13.083 17.417 13.326 17.417 13.625 L 17.417 13.625 C 17.417 13.924 17.174 14.167 16.875 14.167 L 7.125 14.167 C 6.826 14.167 6.583 13.924 6.583 13.625 L 6.583 13.625 C 6.583 13.326 6.826 13.083 7.125 13.083 Z" style="stroke:none;stroke-miterlimit:10;"/><path d="M 7.125 16.333 L 16.875 16.333 C 17.174 16.333 17.417 16.576 17.417 16.875 L 17.417 16.875 C 17.417 17.174 17.174 17.417 16.875 17.417 L 7.125 17.417 C 6.826 17.417 6.583 17.174 6.583 16.875 L 6.583 16.875 C 6.583 16.576 6.826 16.333 7.125 16.333 Z" style="stroke:none;stroke-miterlimit:10;"/></g></svg>
