<svg xmlns="http://www.w3.org/2000/svg" xmlns:xlink="http://www.w3.org/1999/xlink" style="isolation:isolate" viewBox="0 0 20 20" width="20" height="20"><defs><clipPath id="_clipPath_zdvoxKcaQM2KlYbPa3HYCMewdq5WyWk2"><rect width="20" height="20"/></clipPath></defs><g clip-path="url(#_clipPath_zdvoxKcaQM2KlYbPa3HYCMewdq5WyWk2)"><g><g><path d=" M 2.423 18.737 L 17.577 18.737 C 17.926 18.737 18.208 19.02 18.208 19.369 L 18.208 19.369 C 18.208 19.717 17.926 20 17.577 20 L 2.423 20 C 2.074 20 1.792 19.717 1.792 19.369 L 1.792 19.369 C 1.792 19.02 2.074 18.737 2.423 18.737 Z " fill-rule="evenodd" fill="rgb(93,141,248)"/><path d=" M 13.283 11.514 L 16.112 11.514 C 16.196 11.514 16.264 11.582 16.264 11.665 C 16.264 11.713 16.241 11.758 16.203 11.787 L 10.091 16.38 C 10.037 16.421 9.963 16.421 9.909 16.38 L 3.797 11.787 C 3.73 11.736 3.716 11.641 3.767 11.574 C 3.795 11.536 3.84 11.514 3.888 11.514 L 6.717 11.514 L 6.717 0.758 C 6.717 0.339 7.056 0 7.475 0 L 12.525 0 C 12.944 0 13.283 0.339 13.283 0.758 L 13.283 11.514 Z " fill-rule="evenodd" fill="rgb(93,141,248)"/></g></g></g></svg>
