<svg xmlns="http://www.w3.org/2000/svg" xmlns:xlink="http://www.w3.org/1999/xlink" style="isolation:isolate" viewBox="0 0 20 20" width="20" height="20"><g clip-path="url(#_clipPath_uX7aVkR8Y1IyHKZ7RzSTUA7P5nfUBCxx)"><circle vector-effect="non-scaling-stroke" cx="10" cy="10" r="10"/><path d=" M 4.583 15 L 14.583 15 C 14.813 15 15 15.187 15 15.417 L 15 15.417 C 15 15.647 14.813 15.833 14.583 15.833 L 4.583 15.833 C 4.353 15.833 4.167 15.647 4.167 15.417 L 4.167 15.417 C 4.167 15.187 4.353 15 4.583 15 Z " fill-rule="evenodd" fill="rgb(255,255,255)"/><path d=" M 12.166 10.098 L 14.033 10.098 C 14.089 10.098 14.133 10.143 14.133 10.198 C 14.133 10.229 14.119 10.259 14.093 10.278 L 10.06 13.309 C 10.024 13.336 9.976 13.336 9.94 13.309 L 5.907 10.278 C 5.862 10.245 5.853 10.182 5.887 10.138 C 5.906 10.113 5.935 10.098 5.967 10.098 L 7.834 10.098 L 7.834 3 C 7.834 2.724 8.057 2.5 8.334 2.5 L 11.666 2.5 C 11.943 2.5 12.166 2.724 12.166 3 L 12.166 10.098 Z " fill-rule="evenodd" fill="rgb(255,255,255)"/></g></svg>
