<svg width="20px" height="20px" viewBox="0 0 20 20" version="1.1" xmlns="http://www.w3.org/2000/svg" xmlns:xlink="http://www.w3.org/1999/xlink">
    <g id="icon/download/active" stroke="none" stroke-width="1" fill="none" fill-rule="evenodd">
        <g id="icon/download-copy">
            <g id="box-copy">
                <rect id="Rectangle" x="0" y="0" width="20" height="20"></rect>
                <circle id="Oval" fill="#5D8DF8" cx="10" cy="10" r="10"></circle>
            </g>
            <g id="Group-4" transform="translate(4.166667, 2.500000)" fill="#FFFFFF">
                <path d="M0.416666667,12.5 L10.4166667,12.5 C10.6467853,12.5 10.8333333,12.686548 10.8333333,12.9166667 L10.8333333,12.9166667 C10.8333333,13.1467853 10.6467853,13.3333333 10.4166667,13.3333333 L0.416666667,13.3333333 C0.186548021,13.3333333 2.81814063e-17,13.1467853 0,12.9166667 L0,12.9166667 C-2.81814063e-17,12.686548 0.186548021,12.5 0.416666667,12.5 Z" id="Rectangle-8"></path>
                <path d="M7.9997889,7.59799316 L9.86672865,7.59799316 C9.92195713,7.59799316 9.96672865,7.64276469 9.96672865,7.69799316 C9.96672865,7.7294346 9.95194134,7.75904528 9.92680659,7.77793465 L5.89341368,10.8091259 C5.85782641,10.8358706 5.80884507,10.8358706 5.7732578,10.8091259 L1.73986489,7.77793465 C1.69571443,7.74475452 1.68682122,7.68206569 1.72000135,7.63791522 C1.73889071,7.61278047 1.7685014,7.59799316 1.79994283,7.59799316 L3.66688258,7.59799316 L3.66688258,0.5 C3.66688258,0.223857625 3.89074021,5.07265313e-17 4.16688258,0 L7.4997889,0 C7.77593128,1.94537167e-16 7.9997889,0.223857625 7.9997889,0.5 L7.9997889,7.59799316 Z" id="Combined-Shape"></path>
            </g>
        </g>
    </g>
</svg>
