<svg width="32px" height="32px" viewBox="0 0 32 32" version="1.1" xmlns="http://www.w3.org/2000/svg" xmlns:xlink="http://www.w3.org/1999/xlink">
    <g id="icon/edit" stroke="none" stroke-width="1" fill="none" fill-rule="evenodd">
        <g id="Group-7" transform="translate(1.000000, 2.000000)">
            <g id="box-copy-8">
                <rect id="Rectangle" x="0" y="0" width="32" height="32"></rect>
            </g>
            <path d="M20,17.5 L14,17.5 L14,2 L20,2 L20,17.5 Z M20,19 L17.08,22.8933333 C17.0468629,22.9375161 16.9841828,22.9464704 16.94,22.9133333 C16.9324194,22.9076479 16.9256854,22.9009139 16.92,22.8933333 L14,19 L20,19 Z M20,1 L14,1 L14,0.5 C14,0.223857625 14.2238576,5.07265313e-17 14.5,0 L19.5,0 C19.7761424,-5.07265313e-17 20,0.223857625 20,0.5 L20,1 Z" id="Combined-Shape" fill="#B0BCDE" transform="translate(17.000000, 11.466670) rotate(30.000000) translate(-17.000000, -11.466670) "></path>
            <rect id="Rectangle-21" fill="#B0BCDE" x="4.33333333" y="23.3333333" width="18.6666667" height="1.33333333" rx="0.666666667"></rect>
        </g>
    </g>
</svg>
