<svg xmlns="http://www.w3.org/2000/svg" xmlns:xlink="http://www.w3.org/1999/xlink" style="isolation:isolate" viewBox="0 0 32 32" width="32" height="32"><g clip-path="url(#_clipPath_ph7o7F8T70PIhs5x4lkQWelhfOB1lHzf)"><path d=" M 18.763 23.877 L 11.943 19.939 L 22.115 2.321 L 28.935 6.258 L 18.763 23.877 Z  M 17.779 25.582 L 11.905 28.091 C 11.838 28.119 11.761 28.088 11.732 28.022 C 11.728 28.01 11.724 27.998 11.723 27.986 L 10.959 21.644 L 17.779 25.582 Z  M 29.591 5.122 L 22.771 1.184 L 23.099 0.616 C 23.281 0.302 23.682 0.194 23.996 0.376 L 29.679 3.657 C 29.993 3.838 30.101 4.24 29.919 4.553 L 29.591 5.122 Z " fill-rule="evenodd"/><path d="M 3.562 30.625 L 26.313 30.625 C 26.795 30.625 27.188 31.017 27.188 31.5 L 27.188 31.5 C 27.188 31.983 26.795 32.375 26.313 32.375 L 3.562 32.375 C 3.08 32.375 2.687 31.983 2.687 31.5 L 2.687 31.5 C 2.687 31.017 3.08 30.625 3.562 30.625 Z" style="stroke:none;stroke-miterlimit:10;"/></g></svg>
