<svg xmlns="http://www.w3.org/2000/svg" xmlns:xlink="http://www.w3.org/1999/xlink" style="isolation:isolate" viewBox="0 0 28 28" width="28" height="28"><g clip-path="url(#_clipPath_m7iU3nTtVe1i7roaQTMane5fCQPxdNiA)"><path d="M 3.232 5.286 L 24.768 5.286 C 26.187 5.286 27.339 6.438 27.339 7.857 L 27.339 20.393 C 27.339 21.812 26.187 22.964 24.768 22.964 L 3.232 22.964 C 1.813 22.964 0.661 21.812 0.661 20.393 L 0.661 7.857 C 0.661 6.438 1.813 5.286 3.232 5.286 Z" style="fill:none;stroke:#769CEE;stroke-width:2;stroke-miterlimit:2;"/><path d=" M 14.289 14.768 L 13.711 14.768 L 14 14.594 L 14.289 14.768 Z  M 24.961 8.018 C 25.227 7.858 25.573 7.944 25.732 8.211 C 25.892 8.477 25.806 8.823 25.539 8.982 L 14.289 15.732 C 14.111 15.839 13.889 15.839 13.711 15.732 L 2.461 8.982 C 2.194 8.823 2.108 8.477 2.268 8.211 C 2.427 7.944 2.773 7.858 3.039 8.018 L 14 14.594 L 24.961 8.018 Z "/><path d=" M 2.427 19.787 L 11.174 13.664 C 11.429 13.486 11.78 13.548 11.958 13.802 C 12.136 14.057 12.074 14.408 11.82 14.586 L 3.073 20.709 C 2.818 20.887 2.467 20.825 2.289 20.57 C 2.111 20.316 2.173 19.965 2.427 19.787 Z  M 17.016 13.798 L 25.573 19.787 C 25.827 19.965 25.889 20.316 25.711 20.57 C 25.533 20.825 25.182 20.887 24.927 20.709 L 16.371 14.719 C 16.117 14.541 16.055 14.19 16.233 13.936 C 16.411 13.681 16.762 13.62 17.016 13.798 Z "/></g></svg>
