<svg width="28px" height="28px" viewBox="0 0 28 28" version="1.1" xmlns="http://www.w3.org/2000/svg" xmlns:xlink="http://www.w3.org/1999/xlink">
    <g id="icon/email" stroke="none" stroke-width="1" fill="none" fill-rule="evenodd">
        <g id="Group-18">
            <rect id="Rectangle-3-Copy-7" x="0" y="0" width="28" height="28"></rect>
            <g id="email" transform="translate(2.625000, 7.000000)">
                <rect id="Rectangle-23" stroke="#769CEE" stroke-width="2" x="1" y="1" width="20.75" height="13.75" rx="2"></rect>
                <path d="M11.6000919,8.37484685 L11.1499081,8.37484685 L11.375,8.23979171 L11.6000919,8.37484685 Z M19.8999081,3.12484685 C20.1070995,3.00053203 20.3758383,3.06771674 20.5001532,3.27490811 C20.624468,3.48209947 20.5572833,3.75083834 20.3500919,3.87515315 L11.6000919,9.12515315 C11.4615433,9.20828228 11.2884567,9.20828228 11.1499081,9.12515315 L2.39990811,3.87515315 C2.19271674,3.75083834 2.12553203,3.48209947 2.24984685,3.27490811 C2.37416166,3.06771674 2.64290053,3.00053203 2.85009189,3.12484685 L11.375,8.23979171 L19.8999081,3.12484685 Z" id="Path-4" fill="#769CEE" fill-rule="nonzero"></path>
                <path d="M2.37411022,8.23341397 L9.17727664,12.9956305 C9.3752232,13.1341931 9.64801778,13.0860528 9.78658038,12.8881063 C9.92514298,12.6901597 9.87700276,12.4173651 9.67905619,12.2788025 L2.87588978,7.51658603 C2.67794321,7.37802344 2.40514863,7.42616366 2.26658603,7.62411022 C2.12802344,7.82205679 2.17616366,8.09485137 2.37411022,8.23341397 Z M13.7210682,12.8917891 L20.3758898,8.23341397 C20.5738363,8.09485137 20.6219766,7.82205679 20.483414,7.62411022 C20.3448514,7.42616366 20.0720568,7.37802344 19.8741102,7.51658603 L13.2192886,12.1749612 C13.021342,12.3135238 12.9732018,12.5863183 13.1117644,12.7842649 C13.250327,12.9822115 13.5231216,13.0303517 13.7210682,12.8917891 Z" id="Path-4" fill="#769CEE" fill-rule="nonzero" transform="translate(11.375000, 10.256108) scale(1, -1) translate(-11.375000, -10.256108) "></path>
            </g>
        </g>
    </g>
</svg>
