<svg xmlns="http://www.w3.org/2000/svg" xmlns:xlink="http://www.w3.org/1999/xlink" style="isolation:isolate" viewBox="0 0 24 24" width="24" height="24"><defs><clipPath id="_clipPath_fl1ovBpqom0IcjKDjwy4Sw0oglqHP53T"><rect width="24" height="24"/></clipPath></defs><g clip-path="url(#_clipPath_fl1ovBpqom0IcjKDjwy4Sw0oglqHP53T)"><circle vector-effect="non-scaling-stroke" cx="11.999999999999998" cy="11.999999999999998" r="11.666666666666668"/><path d=" M 14.817 10.833 L 13.508 9.525 C 13.053 9.07 13.053 8.331 13.508 7.875 C 13.964 7.42 14.703 7.42 15.158 7.875 L 18.458 11.175 C 18.914 11.631 18.914 12.369 18.458 12.825 L 15.158 16.125 C 14.703 16.58 13.964 16.58 13.508 16.125 C 13.053 15.669 13.053 14.93 13.508 14.475 L 14.817 13.167 L 6.167 13.167 C 5.522 13.167 5 12.644 5 12 C 5 11.356 5.522 10.833 6.167 10.833 L 14.817 10.833 Z " fill="rgb(255,255,255)"/></g></svg>
