<svg width="20px" height="20px" viewBox="0 0 20 20" version="1.1" xmlns="http://www.w3.org/2000/svg" xmlns:xlink="http://www.w3.org/1999/xlink">
    <g id="icon/waiver-export-active" stroke="none" stroke-width="1" fill="none" fill-rule="evenodd">
        <g id="Group-24">
            <g id="box-copy-9">
                <rect id="Rectangle" x="0" y="0" width="20" height="20"></rect>
            </g>
            <circle id="Oval" fill="#5D8DF8" cx="10" cy="10" r="10"></circle>
            <path d="M11.3382129,4.27925178 C11.3382129,4.25563441 11.3465719,4.23277921 11.3618091,4.21473464 C11.3974409,4.17253799 11.4605334,4.16721616 11.50273,4.20284799 L16.6263921,8.52938729 C16.6306809,8.53300887 16.6346572,8.53698513 16.6382788,8.54127395 C16.6739106,8.5834706 16.6685888,8.64656304 16.6263921,8.68219487 L11.50273,13.0087342 C11.4846855,13.0239714 11.4618303,13.0323304 11.4382129,13.0323304 C11.3829844,13.0323304 11.3382129,12.9875589 11.3382129,12.9323304 L11.3382129,4.27925178 Z M11.3382129,6.74960296 C11.3382129,7.657976 11.3382129,9.47472207 11.3382129,10.3830951 C6.8559965,10.3830951 5.06310995,13.1082142 4.16666667,15.8333333 C4.16666667,12.4278516 4.71538341,6.74960296 11.3382129,6.74960296 Z" id="Combined-Shape-Copy" fill="#FFFFFF"></path>
        </g>
    </g>
</svg>
