<svg xmlns="http://www.w3.org/2000/svg" xmlns:xlink="http://www.w3.org/1999/xlink" style="isolation:isolate" viewBox="0 0 24 24" width="24" height="24"><defs><clipPath id="_clipPath_7FM9jKPDKJPqMPRVoedyVbbaFHasyOXN"><rect width="24" height="24"/></clipPath></defs><g clip-path="url(#_clipPath_7FM9jKPDKJPqMPRVoedyVbbaFHasyOXN)"><g><rect x="-4" y="-3" width="31" height="31" transform="matrix(1,0,0,1,0,0)" fill="none"/><path d=" M 20.542 13.533 L 20.542 20.767 C 20.542 21.195 20.195 21.542 19.767 21.542 L 3.233 21.542 C 2.805 21.542 2.458 21.195 2.458 20.767 L 2.458 4.233 C 2.458 3.805 2.805 3.458 3.233 3.458 L 11.5 3.458 C 12.213 3.458 12.792 2.88 12.792 2.167 C 12.792 1.453 12.213 0.875 11.5 0.875 L 3.233 0.875 C 1.379 0.875 -0.125 2.379 -0.125 4.233 L -0.125 20.767 C -0.125 22.621 1.379 24.125 3.233 24.125 L 19.767 24.125 C 21.621 24.125 23.125 22.621 23.125 20.767 L 23.125 13.533 C 23.125 12.82 22.547 12.242 21.833 12.242 C 21.12 12.242 20.542 12.82 20.542 13.533 Z " fill="rgb(209,214,222)"/><path d=" M 16.667 1.004 C 16.667 0.974 16.677 0.945 16.697 0.921 C 16.742 0.867 16.824 0.859 16.879 0.905 L 24.298 7.087 C 24.304 7.092 24.309 7.098 24.314 7.104 C 24.36 7.159 24.352 7.24 24.298 7.286 L 16.879 13.469 C 16.855 13.488 16.826 13.498 16.796 13.498 C 16.724 13.498 16.667 13.441 16.667 13.369 L 16.667 1.004 Z  M 16.667 4.547 C 16.667 5.839 16.667 8.422 16.667 9.714 C 10.208 9.714 7.625 13.589 6.333 17.464 C 6.333 12.622 7.124 4.547 16.667 4.547 Z " fill-rule="evenodd" fill="rgb(209,214,222)"/></g></g></svg>
