<svg width="29px" height="28px" viewBox="0 0 29 28" version="1.1" xmlns="http://www.w3.org/2000/svg" xmlns:xlink="http://www.w3.org/1999/xlink">
    <g id="icon/gender" stroke="none" stroke-width="1" fill="none" fill-rule="evenodd">
        <g id="Group-21">
            <rect id="Rectangle-3-Copy-10" x="0" y="0" width="28" height="28"></rect>
            <path d="M8.75,14.8553812 C6.29715625,14.6343436 4.375,12.5728936 4.375,10.0625 C4.375,7.40462964 6.52962964,5.25 9.1875,5.25 C11.8453704,5.25 14,7.40462964 14,10.0625 C14,12.5728936 12.0778438,14.6343436 9.625,14.8553812 L9.625,17.5 L10.9375,17.5 C11.1791246,17.5 11.375,17.6958754 11.375,17.9375 C11.375,18.1791246 11.1791246,18.375 10.9375,18.375 L9.625,18.375 L9.625,21.4375 C9.625,21.6791246 9.42912458,21.875 9.1875,21.875 C8.94587542,21.875 8.75,21.6791246 8.75,21.4375 L8.75,18.375 L7.4375,18.375 C7.19587542,18.375 7,18.1791246 7,17.9375 C7,17.6958754 7.19587542,17.5 7.4375,17.5 L8.75,17.5 L8.75,14.8553812 Z M9.1875,13.125 C10.878872,13.125 12.25,11.753872 12.25,10.0625 C12.25,8.37112795 10.878872,7 9.1875,7 C7.49612795,7 6.125,8.37112795 6.125,10.0625 C6.125,11.753872 7.49612795,13.125 9.1875,13.125 Z" id="Oval-9" fill="#769CEE" fill-rule="nonzero"></path>
            <g id="Group-9" transform="translate(19.687500, 13.562500) scale(1, -1) rotate(-30.000000) translate(-19.687500, -13.562500) translate(14.875000, 5.250000)" fill="#769CEE">
                <path d="M4.8125,9.625 C2.15462964,9.625 0,7.47037036 0,4.8125 C0,2.15462964 2.15462964,0 4.8125,0 C7.47037036,0 9.625,2.15462964 9.625,4.8125 C9.625,7.47037036 7.47037036,9.625 4.8125,9.625 Z M4.8125,7.875 C6.50387205,7.875 7.875,6.50387205 7.875,4.8125 C7.875,3.12112795 6.50387205,1.75 4.8125,1.75 C3.12112795,1.75 1.75,3.12112795 1.75,4.8125 C1.75,6.50387205 3.12112795,7.875 4.8125,7.875 Z" id="Oval-9-Copy" fill-rule="nonzero"></path>
                <path d="M4.40609217,15.0122475 L2.67807765,13.284233 C2.50722327,13.1133786 2.23021359,13.1133786 2.05935922,13.284233 C1.88850484,13.4550873 1.88850484,13.732097 2.05935922,13.9029514 L4.53423295,16.3778251 C4.61966014,16.4632523 4.73162615,16.5059659 4.84359217,16.5059659 C4.95555818,16.5059659 5.0675242,16.4632523 5.15295138,16.3778251 L7.62782512,13.9029514 C7.7986795,13.732097 7.7986795,13.4550873 7.62782512,13.284233 C7.45697074,13.1133786 7.17996106,13.1133786 7.00910669,13.284233 L5.28109217,15.0122475 L5.28109217,8.81218434 C5.28109217,8.57055976 5.08521675,8.37468434 4.84359217,8.37468434 C4.60196759,8.37468434 4.40609217,8.57055976 4.40609217,8.81218434 L4.40609217,15.0122475 Z" id="Combined-Shape"></path>
            </g>
        </g>
    </g>
</svg>
