<svg xmlns="http://www.w3.org/2000/svg" xmlns:xlink="http://www.w3.org/1999/xlink" style="isolation:isolate" viewBox="0 0 29 28" width="29" height="28"><g clip-path="url(#_clipPath_zn3SKRHcr91YvbVG0ApBohsbN2NXSF4L)"><path d=" M 6.188 16.222 C 2.771 15.906 0.094 12.961 0.094 9.375 C 0.094 5.578 3.095 2.5 6.797 2.5 C 10.499 2.5 13.5 5.578 13.5 9.375 C 13.5 12.961 10.823 15.906 7.406 16.222 L 7.406 20 L 9.234 20 C 9.571 20 9.844 20.28 9.844 20.625 C 9.844 20.97 9.571 21.25 9.234 21.25 L 7.406 21.25 L 7.406 25.625 C 7.406 25.97 7.133 26.25 6.797 26.25 C 6.46 26.25 6.188 25.97 6.188 25.625 L 6.188 21.25 L 4.359 21.25 C 4.023 21.25 3.75 20.97 3.75 20.625 C 3.75 20.28 4.023 20 4.359 20 L 6.188 20 L 6.188 16.222 Z  M 6.797 13.75 C 9.153 13.75 11.063 11.791 11.063 9.375 C 11.063 6.959 9.153 5 6.797 5 C 4.441 5 2.531 6.959 2.531 9.375 C 2.531 11.791 4.441 13.75 6.797 13.75 Z "/><path d=" M 23.336 12.751 C 20.13 10.853 16.03 11.979 14.179 15.268 C 12.328 18.556 13.427 22.761 16.633 24.659 C 19.839 26.558 23.938 25.431 25.789 22.143 C 27.64 18.854 26.542 14.65 23.336 12.751 Z  M 22.117 14.916 C 24.157 16.124 24.856 18.8 23.679 20.893 C 22.501 22.985 19.892 23.702 17.852 22.494 C 15.811 21.286 15.112 18.61 16.29 16.518 C 17.468 14.425 20.077 13.708 22.117 14.916 Z "/><path d=" M 26.598 5.796 L 23.31 6.699 C 22.985 6.789 22.65 6.591 22.563 6.258 C 22.476 5.924 22.669 5.581 22.994 5.492 L 27.703 4.198 C 27.866 4.153 28.03 4.18 28.166 4.26 C 28.301 4.34 28.406 4.473 28.449 4.64 L 29.711 9.47 C 29.798 9.803 29.605 10.146 29.28 10.235 C 28.955 10.324 28.621 10.126 28.534 9.793 L 27.653 6.421 L 23.335 14.092 C 23.167 14.39 22.794 14.493 22.503 14.32 C 22.211 14.148 22.111 13.765 22.28 13.467 L 26.598 5.796 Z " fill-rule="evenodd"/></g></svg>
