<svg xmlns="http://www.w3.org/2000/svg" xmlns:xlink="http://www.w3.org/1999/xlink" style="isolation:isolate" viewBox="0 0 24 24" width="24" height="24"><g clip-path="url(#_clipPath_MfvedlSCbs5kp1yVUIIvCy4mV3Enrx8v)"><path d=" M 5.387 12.921 C 4.525 11.974 4 10.715 4 9.333 C 4 6.388 6.388 4 9.333 4 C 12.279 4 14.667 6.388 14.667 9.333 C 14.667 10.715 14.141 11.974 13.279 12.921 C 16.468 14.496 18.667 17.918 18.667 21.867 C 18.667 22.603 18.07 23.2 17.333 23.2 C 16.597 23.2 16 22.603 16 21.867 C 16 17.872 12.995 14.667 9.333 14.667 C 5.671 14.667 2.667 17.872 2.667 21.867 C 2.667 22.603 2.07 23.2 1.333 23.2 C 0.597 23.2 0 22.603 0 21.867 C 0 17.918 2.198 14.496 5.387 12.921 Z  M 9.333 12 C 10.806 12 12 10.806 12 9.333 C 12 7.861 10.806 6.667 9.333 6.667 C 7.861 6.667 6.667 7.861 6.667 9.333 C 6.667 10.806 7.861 12 9.333 12 Z "/><path d=" M 20 5.185 C 20 2.321 17.612 0 14.667 0 C 12.294 0 10.227 1.52 9.557 3.697 C 9.409 4.177 9.333 4.677 9.333 5.185 C 9.333 5.901 9.93 6.481 10.667 6.481 C 11.403 6.481 12 5.901 12 5.185 C 12 4.929 12.038 4.679 12.111 4.44 C 12.446 3.353 13.48 2.593 14.667 2.593 C 16.139 2.593 17.333 3.753 17.333 5.185 C 17.333 6.617 16.139 7.778 14.667 7.778 C 12.889 7.778 12.889 10.37 14.667 10.37 C 18.329 10.37 21.333 13.486 21.333 17.37 C 21.333 18.086 21.93 18.667 22.667 18.667 C 23.403 18.667 24 18.086 24 17.37 C 24 13.532 21.802 10.204 18.613 8.674 C 19.475 7.753 20 6.528 20 5.185 Z "/></g></svg>
