<svg width="24px" height="24px" viewBox="0 0 24 24" version="1.1" xmlns="http://www.w3.org/2000/svg" xmlns:xlink="http://www.w3.org/1999/xlink">
    <g id="Page-1" stroke="none" stroke-width="1" fill="none" fill-rule="evenodd">
        <g id="ICONS" transform="translate(-222.000000, -490.000000)" fill="#5D8DF8">
            <g id="icon/group/blue" transform="translate(222.000000, 490.000000)">
                <g id="Group-2">
                    <g id="Group-2-Copy" transform="translate(0.000000, 4.000000)" fill-rule="nonzero">
                        <path d="M5.38733772,8.92136346 C4.52541172,7.97400152 4,6.71502567 4,5.33333333 C4,2.38781467 6.38781467,0 9.33333333,0 C12.278852,0 14.6666667,2.38781467 14.6666667,5.33333333 C14.6666667,6.71502567 14.1412549,7.97400152 13.2793289,8.92136346 C16.4682253,10.4955365 18.6666667,13.9181986 18.6666667,17.8666667 C18.6666667,18.6030463 18.069713,19.2 17.3333333,19.2 C16.5969537,19.2 16,18.6030463 16,17.8666667 C16,13.8716694 12.99531,10.6666667 9.33333333,10.6666667 C5.67135669,10.6666667 2.66666667,13.8716694 2.66666667,17.8666667 C2.66666667,18.6030463 2.069713,19.2 1.33333333,19.2 C0.596953667,19.2 0,18.6030463 0,17.8666667 C0,13.9181986 2.19844132,10.4955365 5.38733772,8.92136346 Z M9.33333333,8 C10.8060927,8 12,6.80609267 12,5.33333333 C12,3.860574 10.8060927,2.66666667 9.33333333,2.66666667 C7.860574,2.66666667 6.66666667,3.860574 6.66666667,5.33333333 C6.66666667,6.80609267 7.860574,8 9.33333333,8 Z" id="Oval"></path>
                    </g>
                    <g id="Group-2-Copy-2" transform="translate(9.333333, 0.000000)" fill-rule="nonzero">
                        <path d="M10.6666667,5.18518519 C10.6666667,2.32148648 8.278852,0 5.33333333,0 C2.96052254,0 0.893260138,1.51957985 0.223172302,3.69736029 C0.0756866035,4.1766877 0,4.67672789 0,5.18518519 C0,5.90110986 0.596953667,6.48148148 1.33333333,6.48148148 C2.069713,6.48148148 2.66666667,5.90110986 2.66666667,5.18518519 C2.66666667,4.92904719 2.70447269,4.6792734 2.77797545,4.44038998 C3.11258752,3.35290325 4.14692714,2.59259259 5.33333333,2.59259259 C6.80609267,2.59259259 8,3.75333583 8,5.18518519 C8,6.61703454 6.80609267,7.77777778 5.33333333,7.77777778 C3.55555556,7.77777778 3.55555556,10.3703704 5.33333333,10.3703704 C8.99530998,10.3703704 12,13.4863452 12,17.3703704 C12,18.086295 12.5969537,18.6666667 13.3333333,18.6666667 C14.069713,18.6666667 14.6666667,18.086295 14.6666667,17.3703704 C14.6666667,13.531582 12.4682253,10.2039938 9.27932895,8.67354781 C10.1412549,7.75250148 10.6666667,6.52849718 10.6666667,5.18518519 Z" id="Oval-2"></path>
                    </g>
                </g>
            </g>
        </g>
    </g>
</svg>
