<svg xmlns="http://www.w3.org/2000/svg" xmlns:xlink="http://www.w3.org/1999/xlink" style="isolation:isolate" viewBox="0 0 28 28" width="28" height="28"><g clip-path="url(#_clipPath_q8PP6VjXLn8qdkJ6heRiNCemgtR8ms9m)"><path d=" M 19.688 8.607 C 19.688 5.19 16.917 2.42 13.5 2.42 C 10.083 2.42 7.313 5.19 7.313 8.607 C 7.313 12.987 9.352 16.991 13.5 20.656 C 17.648 16.991 19.687 12.987 19.688 8.607 Z  M 5.25 8.607 C 5.25 4.051 8.944 0.357 13.5 0.357 C 18.056 0.357 21.75 4.051 21.75 8.607 C 21.75 13.873 19.194 18.621 14.159 22.806 L 13.5 23.355 L 12.841 22.806 C 7.806 18.621 5.25 13.873 5.25 8.607 Z "/><path d=" M 13.5 13.248 C 11.507 13.248 9.891 11.632 9.891 9.638 C 9.891 7.645 11.507 6.029 13.5 6.029 C 15.493 6.029 17.109 7.645 17.109 9.638 C 17.109 11.632 15.493 13.248 13.5 13.248 Z  M 13.5 12.217 C 14.924 12.217 16.078 11.062 16.078 9.638 C 16.078 8.215 14.924 7.06 13.5 7.06 C 12.076 7.06 10.922 8.215 10.922 9.638 C 10.922 11.062 12.076 12.217 13.5 12.217 Z "/><path d=" M 7.779 20.64 C 7.144 21.356 6.797 22.189 6.797 23.063 C 6.797 25.671 9.832 27.685 13.5 27.685 C 17.168 27.685 20.203 25.671 20.203 23.063 C 20.203 22.211 19.874 21.399 19.269 20.695 C 19.084 20.479 18.758 20.455 18.542 20.64 C 18.326 20.826 18.302 21.151 18.487 21.367 C 18.938 21.892 19.172 22.47 19.172 23.063 C 19.172 24.991 16.666 26.654 13.5 26.654 C 10.334 26.654 7.828 24.991 7.828 23.063 C 7.828 22.453 8.075 21.86 8.55 21.324 C 8.739 21.111 8.72 20.786 8.507 20.596 C 8.294 20.407 7.968 20.427 7.779 20.64 Z "/></g></svg>
