<svg width="28px" height="28px" viewBox="0 0 28 28" version="1.1" xmlns="http://www.w3.org/2000/svg" xmlns:xlink="http://www.w3.org/1999/xlink">
    <g id="icon/location" stroke="none" stroke-width="1" fill="none" fill-rule="evenodd">
        <g id="Group-22">
            <rect id="Rectangle-3-Copy-12" x="0" y="0" width="28" height="28"></rect>
            <g id="Group-12" transform="translate(7.000000, 2.000000)" fill="#769CEE" fill-rule="nonzero">
                <path d="M12.25,7 C12.25,4.10050506 9.89949494,1.75 7,1.75 C4.10050506,1.75 1.75,4.10050506 1.75,7 C1.75,10.7165803 3.48085285,14.1134973 7,17.2228513 C10.519146,14.1134983 12.2499982,10.7165828 12.25,7 Z M0,7 C0,3.13400675 3.13400675,0 7,0 C10.8659932,0 14,3.13400675 14,7.00000042 C13.9999979,11.4678438 11.8308704,15.4962228 7.55942161,19.0478094 L7,19.5129523 L6.44057839,19.0478094 C2.16912825,15.4962217 0,11.4678407 0,7 Z" id="Combined-Shape"></path>
                <path d="M7,10.9375 C5.30862795,10.9375 3.9375,9.56637205 3.9375,7.875 C3.9375,6.18362795 5.30862795,4.8125 7,4.8125 C8.69137205,4.8125 10.0625,6.18362795 10.0625,7.875 C10.0625,9.56637205 8.69137205,10.9375 7,10.9375 Z M7,10.0625 C8.20812289,10.0625 9.1875,9.08312289 9.1875,7.875 C9.1875,6.66687711 8.20812289,5.6875 7,5.6875 C5.79187711,5.6875 4.8125,6.66687711 4.8125,7.875 C4.8125,9.08312289 5.79187711,10.0625 7,10.0625 Z" id="Oval-11"></path>
                <path d="M2.1458685,17.2096023 C1.60676031,17.8170763 1.3125,18.523671 1.3125,19.2657175 C1.3125,21.4784794 3.88759486,23.1875 7,23.1875 C10.1124051,23.1875 12.6875,21.4784794 12.6875,19.2657175 C12.6875,18.5429994 12.4083287,17.8535539 11.8950635,17.2564634 C11.7375558,17.0732319 11.4613322,17.0523786 11.2781007,17.2098863 C11.0948692,17.3673939 11.074016,17.6436176 11.2315236,17.826849 C11.613842,18.2716069 11.8125,18.7622155 11.8125,19.2657175 C11.8125,20.9015877 9.68658474,22.3125 7,22.3125 C4.31341526,22.3125 2.1875,20.9015877 2.1875,19.2657175 C2.1875,18.7483595 2.39734259,18.2444734 2.80031614,17.7903977 C2.96069836,17.609677 2.94421074,17.3331584 2.76349001,17.1727762 C2.58276929,17.012394 2.30625072,17.0288816 2.1458685,17.2096023 Z" id="Oval-12"></path>
            </g>
        </g>
    </g>
</svg>
