<svg width="24px" height="24px" viewBox="0 0 24 24" version="1.1" xmlns="http://www.w3.org/2000/svg" xmlns:xlink="http://www.w3.org/1999/xlink">
    <g id="icon/merge" stroke="none" stroke-width="1" fill="none" fill-rule="evenodd">
        <g id="merge">
            <g id="box-copy-2">
                <rect id="Rectangle" x="0" y="0" width="24" height="24"></rect>
            </g>
            <g id="Group-5" transform="translate(4.000000, 2.000000)" fill="#5D8DF8" fill-rule="nonzero">
                <path d="M12.0664188,14.9251045 C10.07437,14.1652526 8.26654322,12.97365 6.64644661,11.3535534 C4.96936302,9.6764698 3.75405199,7.58948751 3,5.09937598 L3,14.0500091 C4.14112016,14.2816442 5,15.290521 5,16.5 C5,17.8807119 3.88071187,19 2.5,19 C1.11928813,19 4.4408921e-16,17.8807119 4.4408921e-16,16.5 C4.4408921e-16,15.290521 0.858879839,14.2816442 2,14.0500091 L2,4.94999094 C0.858879839,4.71835578 4.4408921e-16,3.70947896 4.4408921e-16,2.5 C4.4408921e-16,1.11928813 1.11928813,4.4408921e-16 2.5,4.4408921e-16 C3.88071187,4.4408921e-16 5,1.11928813 5,2.5 C5,3.36675444 4.55890928,4.13048661 3.88895339,4.57897098 C4.5910071,7.01893362 5.74606122,9.03895444 7.35355339,10.6464466 C8.89278568,12.1856789 10.6031399,13.3075789 12.4882518,14.0155213 C12.9435891,13.3994782 13.675143,13 14.5,13 C15.8807119,13 17,14.1192881 17,15.5 C17,16.8807119 15.8807119,18 14.5,18 C13.1192881,18 12,16.8807119 12,15.5 C12,15.3021594 12.0229809,15.1096864 12.0664188,14.9251045 Z" id="Combined-Shape"></path>
            </g>
        </g>
    </g>
</svg>
