<svg xmlns="http://www.w3.org/2000/svg" xmlns:xlink="http://www.w3.org/1999/xlink" style="isolation:isolate" viewBox="0 0 26 21" width="26" height="21"><g clip-path="url(#_clipPath_sXtCj783pigIju2z0TuWlXw4igwUmIPQ)"><g><g><g><g><g><rect x="-3" y="-5.701" width="32" height="32" transform="matrix(1,0,0,1,0,0)" fill="none"/><g><path d="M 14.5 8.299 L 17.5 8.299 C 17.776 8.299 18 8.523 18 8.799 L 18 8.799 C 18 9.075 17.776 9.299 17.5 9.299 L 14.5 9.299 C 14.224 9.299 14 9.075 14 8.799 L 14 8.799 C 14 8.523 14.224 8.299 14.5 8.299 Z" style="stroke:none;stroke-miterlimit:10;"/><path d="M 14.5 11.299 L 20.5 11.299 C 20.776 11.299 21 11.523 21 11.799 L 21 11.799 C 21 12.075 20.776 12.299 20.5 12.299 L 14.5 12.299 C 14.224 12.299 14 12.075 14 11.799 L 14 11.799 C 14 11.523 14.224 11.299 14.5 11.299 Z" style="stroke:none;stroke-miterlimit:10;"/><path d="M 14.5 14.299 L 20.5 14.299 C 20.776 14.299 21 14.523 21 14.799 L 21 14.799 C 21 15.075 20.776 15.299 20.5 15.299 L 14.5 15.299 C 14.224 15.299 14 15.075 14 14.799 L 14 14.799 C 14 14.523 14.224 14.299 14.5 14.299 Z" style="stroke:none;stroke-miterlimit:10;"/><path d=" M 11.5 15.299 C 11.5 12.84 9.969 10.799 8 10.799 C 6.031 10.799 4.5 12.84 4.5 15.299 C 4.5 15.575 4.724 15.799 5 15.799 C 5.276 15.799 5.5 15.575 5.5 15.299 C 5.5 13.34 6.656 11.799 8 11.799 C 9.344 11.799 10.5 13.34 10.5 15.299 C 10.5 15.575 10.724 15.799 11 15.799 C 11.276 15.799 11.5 15.575 11.5 15.299 Z " fill="rgb(118,156,238)"/><path d=" M 8 11.799 C 6.619 11.799 5.5 10.68 5.5 9.299 C 5.5 7.918 6.619 6.799 8 6.799 C 9.381 6.799 10.5 7.918 10.5 9.299 C 10.5 10.68 9.381 11.799 8 11.799 Z  M 8 10.799 C 8.828 10.799 9.5 10.127 9.5 9.299 C 9.5 8.47 8.828 7.799 8 7.799 C 7.172 7.799 6.5 8.47 6.5 9.299 C 6.5 10.127 7.172 10.799 8 10.799 Z " fill="rgb(118,156,238)"/><path d="M 3 3.299 L 23 3.299 C 24.104 3.299 25 4.195 25 5.299 L 25 17.299 C 25 18.403 24.104 19.299 23 19.299 L 3 19.299 C 1.896 19.299 1 18.403 1 17.299 L 1 5.299 C 1 4.195 1.896 3.299 3 3.299 Z" style="fill:none;stroke:#769CEE;stroke-width:2;stroke-miterlimit:2;"/><path d=" M 13 0.299 L 13 0.299 C 14.105 0.299 15 1.194 15 2.299 L 11 2.299 L 11 2.299 C 11 1.194 11.895 0.299 13 0.299 Z " fill-rule="evenodd" fill="rgb(118,156,238)"/></g></g></g></g></g></g></g></svg>
