
<svg width="26px" height="21px" viewBox="0 0 26 21" version="1.1" xmlns="http://www.w3.org/2000/svg" xmlns:xlink="http://www.w3.org/1999/xlink">
    <g id="Symbols" stroke="none" stroke-width="1" fill="none" fill-rule="evenodd">
        <g id="profile-card" transform="translate(-51.000000, -189.000000)">
            <g id="Group">
                <g transform="translate(48.000000, 183.298921)">
                    <g id="icon/name">
                        <g id="Group-17">
                            <rect id="Rectangle-3-Copy-6" x="0" y="0" width="32" height="32"></rect>
                            <g id="name" transform="translate(3.000000, 6.000000)">
                                <rect id="Rectangle-24" fill="#769CEE" x="14" y="8" width="4" height="1" rx="0.5"></rect>
                                <rect id="Rectangle-24-Copy" fill="#769CEE" x="14" y="11" width="7" height="1" rx="0.5"></rect>
                                <rect id="Rectangle-24-Copy-2" fill="#769CEE" x="14" y="14" width="7" height="1" rx="0.5"></rect>
                                <g id="Group-2-Copy" transform="translate(5.000000, 7.000000)"></g>
                                <path d="M11.5,15 C11.5,12.540861 9.96935425,10.5 8,10.5 C6.03064575,10.5 4.5,12.540861 4.5,15 C4.5,15.2761424 4.72385763,15.5 5,15.5 C5.27614237,15.5 5.5,15.2761424 5.5,15 C5.5,13.040861 6.65564575,11.5 8,11.5 C9.34435425,11.5 10.5,13.040861 10.5,15 C10.5,15.2761424 10.7238576,15.5 11,15.5 C11.2761424,15.5 11.5,15.2761424 11.5,15 Z" id="Oval-2" fill="#769CEE" fill-rule="nonzero"></path>
                                <path d="M8,11.5 C6.61928813,11.5 5.5,10.3807119 5.5,9 C5.5,7.61928813 6.61928813,6.5 8,6.5 C9.38071187,6.5 10.5,7.61928813 10.5,9 C10.5,10.3807119 9.38071187,11.5 8,11.5 Z M8,10.5 C8.82842712,10.5 9.5,9.82842712 9.5,9 C9.5,8.17157288 8.82842712,7.5 8,7.5 C7.17157288,7.5 6.5,8.17157288 6.5,9 C6.5,9.82842712 7.17157288,10.5 8,10.5 Z" id="Oval" fill="#769CEE" fill-rule="nonzero"></path>
                                <rect id="Rectangle-23" stroke="#769CEE" stroke-width="2" x="1" y="3" width="24" height="16" rx="2"></rect>
                                <path d="M13,0 L13,0 C14.1045695,-2.02906125e-16 15,0.8954305 15,2 L11,2 L11,2 C11,0.8954305 11.8954305,2.02906125e-16 13,0 Z" id="Rectangle-25" fill="#769CEE"></path>
                            </g>
                        </g>
                    </g>
                </g>
            </g>
        </g>
    </g>
</svg>
