<svg xmlns="http://www.w3.org/2000/svg" xmlns:xlink="http://www.w3.org/1999/xlink" style="isolation:isolate" viewBox="0 0 24 24" width="24" height="24"><defs><clipPath id="_clipPath_PCo3jAy6bNU8KYP3qdRzTeLnpYAF1Mp8"><rect width="24" height="24"/></clipPath></defs><g clip-path="url(#_clipPath_PCo3jAy6bNU8KYP3qdRzTeLnpYAF1Mp8)"><path d=" M 12 23.781 C 5.493 23.781 0.219 18.507 0.219 12 C 0.219 5.493 5.493 0.219 12 0.219 C 18.507 0.219 23.781 5.493 23.781 12 C 23.781 18.507 18.507 23.781 12 23.781 Z "/><path d=" M 16.787 9.097 L 11.972 17.437 C 11.966 17.448 11.958 17.457 11.949 17.466 L 7.773 15.055 C 7.776 15.043 7.78 15.031 7.787 15.02 L 12.602 6.68 L 16.787 9.097 Z  M 17.392 8.051 L 13.206 5.634 L 13.508 5.111 C 13.675 4.822 14.044 4.723 14.333 4.89 L 17.473 6.702 C 17.761 6.869 17.86 7.238 17.694 7.527 L 17.392 8.051 Z  M 10.652 18.112 L 8.211 19.319 C 8.151 19.349 8.079 19.324 8.049 19.264 C 8.042 19.25 8.038 19.235 8.037 19.219 L 7.862 16.501 L 10.652 18.112 Z " fill-rule="evenodd" fill="rgb(255,255,255)"/></g></svg>
