<svg xmlns="http://www.w3.org/2000/svg" xmlns:xlink="http://www.w3.org/1999/xlink" style="isolation:isolate" viewBox="0 0 32 32" width="32" height="32"><g clip-path="url(#_clipPath_UNuvysNPiLTuED5LoAsWWZIvE5T9PIBl)"><path d=" M 29.125 23.188 L 29.125 29.478 C 29.125 29.841 28.831 30.134 28.469 30.134 C 28.295 30.134 28.128 30.065 28.005 29.942 L 21.25 23.188 L 2.875 23.188 C 1.425 23.188 0.25 22.012 0.25 20.563 L 0.25 4.813 C 0.25 3.363 1.425 2.188 2.875 2.188 L 29.125 2.188 C 30.575 2.188 31.75 3.363 31.75 4.813 L 31.75 20.563 C 31.75 22.012 30.575 23.188 29.125 23.188 Z " fill-rule="evenodd"/><path d="M 8.125 6.125 L 23.875 6.125 C 24.599 6.125 25.187 6.713 25.187 7.438 L 25.187 7.438 C 25.187 8.162 24.599 8.75 23.875 8.75 L 8.125 8.75 C 7.401 8.75 6.812 8.162 6.812 7.438 L 6.812 7.438 C 6.812 6.713 7.401 6.125 8.125 6.125 Z" style="stroke:none;fill:#FFFFFF;stroke-miterlimit:10;"/><path d="M 8.125 11.375 L 19.937 11.375 C 20.662 11.375 21.25 11.963 21.25 12.688 L 21.25 12.688 C 21.25 13.412 20.662 14 19.937 14 L 8.125 14 C 7.401 14 6.812 13.412 6.812 12.688 L 6.812 12.688 C 6.812 11.963 7.401 11.375 8.125 11.375 Z" style="stroke:none;fill:#FFFFFF;stroke-miterlimit:10;"/><path d="M 8.125 16.625 L 23.875 16.625 C 24.599 16.625 25.187 17.213 25.187 17.937 L 25.187 17.937 C 25.187 18.662 24.599 19.25 23.875 19.25 L 8.125 19.25 C 7.401 19.25 6.812 18.662 6.812 17.937 L 6.812 17.937 C 6.812 17.213 7.401 16.625 8.125 16.625 Z" style="stroke:none;fill:#FFFFFF;stroke-miterlimit:10;"/></g></svg>
