<svg xmlns="http://www.w3.org/2000/svg" xmlns:xlink="http://www.w3.org/1999/xlink" style="isolation:isolate" viewBox="0 0 24 24" width="24" height="24"><defs><clipPath id="_clipPath_QNdOPpMPo4nMkEf9cuY9gppUvBmoTlvG"><rect width="24" height="24"/></clipPath></defs><g clip-path="url(#_clipPath_QNdOPpMPo4nMkEf9cuY9gppUvBmoTlvG)"><clipPath id="_clipPath_xVf7asJVyJZUWYY41z7w17c6z7QQAJC5"><rect x="0" y="0" width="24" height="24" transform="matrix(1,0,0,1,0,0)" fill="rgb(255,255,255)"/></clipPath><g clip-path="url(#_clipPath_xVf7asJVyJZUWYY41z7w17c6z7QQAJC5)"><g><g><g><g><rect x="-5" y="-1" width="30" height="30" transform="matrix(1,0,0,1,0,0)" fill="none"/></g><g><path d=" M 18.75 24 C 18.75 18.822 14.553 14.625 9.375 14.625 C 4.197 14.625 0 18.822 0 24 L 18.75 24 L 18.75 24 Z " fill-rule="evenodd" fill="rgb(209,211,222)"/><circle vector-effect="non-scaling-stroke" cx="9.374999999999998" cy="9.937500000000004" r="4.6875" fill="rgb(209,211,222)"/></g></g><path d=" M 17.5 4 L 17.5 1.5 C 17.5 0.81 18.06 0.25 18.75 0.25 C 19.44 0.25 20 0.81 20 1.5 L 20 4 L 22.5 4 C 23.19 4 23.75 4.56 23.75 5.25 C 23.75 5.94 23.19 6.5 22.5 6.5 L 20 6.5 L 20 9 C 20 9.69 19.44 10.25 18.75 10.25 C 18.06 10.25 17.5 9.69 17.5 9 L 17.5 6.5 L 15 6.5 C 14.31 6.5 13.75 5.94 13.75 5.25 C 13.75 4.56 14.31 4 15 4 L 17.5 4 L 17.5 4 Z " fill-rule="evenodd" fill="rgb(209,211,222)"/></g></g></g></g></svg>
