<svg width="24px" height="24px" viewBox="0 0 24 24" version="1.1" xmlns="http://www.w3.org/2000/svg" xmlns:xlink="http://www.w3.org/1999/xlink">
    <g id="icon/add/active" stroke="none" stroke-width="1" fill="none" fill-rule="evenodd">
        <g id="icon/group-copy-2">
            <g id="Group-5">
                <g id="box-copy-4">
                    <rect id="Rectangle" x="0" y="0" width="24" height="24"></rect>
                </g>
                <g id="Group-2-Copy-4" transform="translate(4.000000, 5.000000)" fill="#4173E3">
                    <path d="M15,15 C15,10.8578644 11.6421356,7.5 7.5,7.5 C3.35786438,7.5 0,10.8578644 0,15 L15,15 Z" id="Oval-2"></path>
                    <circle id="Oval" cx="7.5" cy="3.75" r="3.75"></circle>
                </g>
            </g>
            <path d="M18,4 L18,2 C18,1.44771525 18.4477153,1 19,1 C19.5522847,1 20,1.44771525 20,2 L20,4 L22,4 C22.5522847,4 23,4.44771525 23,5 C23,5.55228475 22.5522847,6 22,6 L20,6 L20,8 C20,8.55228475 19.5522847,9 19,9 C18.4477153,9 18,8.55228475 18,8 L18,6 L16,6 C15.4477153,6 15,5.55228475 15,5 C15,4.44771525 15.4477153,4 16,4 L18,4 Z" id="Combined-Shape" fill="#4173E3"></path>
        </g>
    </g>
</svg>
