<svg xmlns="http://www.w3.org/2000/svg" xmlns:xlink="http://www.w3.org/1999/xlink" style="isolation:isolate" viewBox="0 0 28 28" width="28" height="28"><g clip-path="url(#_clipPath_jOvQ2debQdx7E1xpddZtp4eKAqEBoFV9)"><path d=" M 14.733 21.478 L 14.574 21.46 C 13.099 21.207 11.72 20.188 9.988 18.486 C 8.303 16.771 7.284 15.392 7.031 13.917 L 7.013 13.758 C 6.942 12.175 7.452 11.355 8.611 10.417 C 9.062 10.051 9.089 10.014 9.089 9.811 C 9.089 7.959 8.1 6.177 6.342 5.591 C 5.768 5.4 4.276 6.791 3.741 8.971 C 2.966 12.129 4.157 15.977 7.808 19.932 C 7.928 20.053 8.049 20.171 8.204 20.321 C 8.335 20.457 8.402 20.523 8.538 20.635 C 12.523 24.327 16.367 25.52 19.523 24.748 C 21.7 24.214 23.091 22.723 22.9 22.149 C 22.314 20.391 20.532 19.402 18.68 19.402 C 18.477 19.402 18.44 19.428 18.074 19.88 C 17.136 21.039 16.316 21.549 14.733 21.478 Z  M 16.082 18.268 C 16.892 17.267 17.488 16.839 18.68 16.839 C 21.538 16.839 24.352 18.402 25.331 21.339 C 26.109 23.673 23.572 26.394 20.132 27.237 C 16.092 28.226 11.383 26.764 6.867 22.576 C 6.692 22.436 6.562 22.311 6.392 22.133 C 6.26 22.006 6.128 21.876 5.961 21.707 C 1.719 17.114 0.261 12.401 1.253 8.36 C 2.097 4.919 4.818 2.382 7.152 3.16 C 10.089 4.139 11.652 6.953 11.652 9.811 C 11.652 11.003 11.223 11.599 10.223 12.409 C 9.663 12.862 9.556 13.013 9.57 13.555 C 9.738 14.317 10.547 15.399 11.8 16.674 C 13.092 17.943 14.174 18.753 14.936 18.921 C 15.478 18.935 15.629 18.828 16.082 18.268 Z "/><path d=" M 23.763 13.169 C 22.832 9.352 20.092 6.211 16.454 4.756 C 16.126 4.625 15.753 4.785 15.621 5.113 C 15.49 5.442 15.65 5.815 15.978 5.946 C 19.233 7.247 21.686 10.059 22.518 13.473 C 22.602 13.816 22.949 14.027 23.293 13.943 C 23.636 13.86 23.847 13.513 23.763 13.169 Z "/><path d=" M 28.706 12.927 C 27.285 7.101 23.102 2.307 17.55 0.087 C 17.221 -0.045 16.849 0.115 16.717 0.444 C 16.586 0.772 16.746 1.145 17.074 1.276 C 22.243 3.343 26.139 7.809 27.461 13.231 C 27.545 13.575 27.892 13.785 28.235 13.702 C 28.579 13.618 28.79 13.271 28.706 12.927 Z "/></g></svg>
