<svg width="28px" height="28px" viewBox="0 0 28 28" version="1.1" xmlns="http://www.w3.org/2000/svg" xmlns:xlink="http://www.w3.org/1999/xlink">
    <g id="icon/phone" stroke="none" stroke-width="1" fill="none" fill-rule="evenodd">
        <g id="Group-19">
            <rect id="Rectangle-3-Copy-8" x="0" y="0" width="28" height="28"></rect>
            <path d="M15.7087248,17.0017673 L15.6235442,17.0703709 C14.7890143,17.6604726 13.6311059,17.833767 11.9731194,17.8484398 C10.3307668,17.833767 9.17285844,17.6604726 8.33832854,17.0703709 L8.25314791,17.0017673 C7.45441626,16.2716367 7.30459145,15.6294852 7.41116248,14.6168685 C7.45269344,14.2222496 7.44761191,14.1911935 7.34979159,14.0933732 C6.45515043,13.1987321 5.11672786,12.8163256 3.98482192,13.3822786 C3.61571224,13.5668334 3.56696639,14.9591758 4.36122437,16.2699228 C5.51209895,18.1691866 7.94505772,19.4527792 11.6183627,19.5996548 C11.7348302,19.5996548 11.8502386,19.5985826 11.9972843,19.5964458 C12.1264736,19.5988599 12.1905064,19.5976456 12.3100494,19.5866361 C16.0177258,19.4447479 18.4502004,18.1649917 19.6008373,16.2679038 C20.3948686,14.9587618 20.3461227,13.5668145 19.9770508,13.3822786 C18.8451449,12.8163256 17.5067223,13.1987321 16.6120811,14.0933732 C16.5142608,14.1911935 16.5091793,14.2222496 16.5507102,14.6168685 C16.6572813,15.6294852 16.5074565,16.2716367 15.7087248,17.0017673 Z M14.8103221,14.8000325 C14.7183399,13.9260361 14.799293,13.4312876 15.3746443,12.8559364 C16.7550031,11.4755775 18.8688533,10.8716203 20.7596746,11.817031 C22.2622622,12.5683248 22.3511951,15.1078195 21.0971235,17.1754432 C19.6240052,19.6042154 16.6439434,21.1720643 12.4406551,21.3305867 C12.2888702,21.3475431 12.1651802,21.3498887 11.9972843,21.3461403 C11.8720066,21.3484813 11.7456994,21.3496548 11.5835687,21.3489627 C7.31678725,21.1791617 4.3372636,19.6072097 2.86456027,17.1768388 C1.61072757,15.1076655 1.69963013,12.568315 3.20219813,11.817031 C5.09301946,10.8716203 7.20686962,11.4755775 8.58722846,12.8559364 C9.16257969,13.4312876 9.24353282,13.9260361 9.15155064,14.8000325 C9.10001187,15.2897436 9.1208164,15.4141239 9.38975979,15.6690921 C9.83889566,15.9560591 10.7519589,16.0874643 11.9731194,16.0985096 C13.2094375,16.0874643 14.1229643,15.9560589 14.5721139,15.6690912 C14.8410564,15.4141236 14.8618608,15.289743 14.8103221,14.8000325 Z" id="Combined-Shape" fill="#769CEE" fill-rule="nonzero" transform="translate(11.980935, 16.354303) rotate(45.000000) translate(-11.980935, -16.354303) "></path>
            <path d="M20.3261287,13.7740887 C19.6904004,11.1671458 17.8186094,9.02189087 15.3344694,8.02869522 C15.1101123,7.93899395 14.8555177,8.04815408 14.7658164,8.27251121 C14.6761151,8.49686833 14.7852752,8.75146296 15.0096324,8.84116423 C17.2319654,9.72968562 18.9075147,11.6500283 19.4760401,13.9813911 C19.533285,14.2161366 19.7699901,14.3600292 20.0047356,14.3027842 C20.2394811,14.2455393 20.3833737,14.0088342 20.3261287,13.7740887 Z" id="Oval-6" fill="#769CEE" fill-rule="nonzero"></path>
            <path d="M23.7017312,13.6089442 C22.7314879,9.6302497 19.8743247,6.35566211 16.082831,4.83976729 C15.8584739,4.75006602 15.6038793,4.85922615 15.514178,5.08358327 C15.4244767,5.3079404 15.5336368,5.56253503 15.757994,5.6522363 C19.2876807,7.06345686 21.9486022,10.1131323 22.8516425,13.8162466 C22.9088875,14.0509921 23.1455925,14.1948847 23.380338,14.1376397 C23.6150835,14.0803948 23.7589761,13.8436897 23.7017312,13.6089442 Z" id="Oval-6" fill="#769CEE" fill-rule="nonzero"></path>
        </g>
    </g>
</svg>
