<svg width="24px" height="24px" viewBox="0 0 24 24" version="1.1" xmlns="http://www.w3.org/2000/svg" xmlns:xlink="http://www.w3.org/1999/xlink">
    <g id="icon/delete/active" stroke="none" stroke-width="1" fill="none" fill-rule="evenodd">
        <g id="Group-5">
            <g id="box-copy-5">
                <rect id="Rectangle" x="0" y="0" width="24" height="24"></rect>
            </g>
            <path d="M10,6 L10,5 C10,4.44771525 10.4477153,4 11,4 L13,4 C13.5522847,4 14,4.44771525 14,5 L14,6 L19.5,6 C19.7761424,6 20,6.22385763 20,6.5 C20,6.77614237 19.7761424,7 19.5,7 L4.5,7 C4.22385763,7 4,6.77614237 4,6.5 C4,6.22385763 4.22385763,6 4.5,6 L10,6 Z" id="Combined-Shape" fill="#4173E3"></path>
            <path d="M5,8 L19,8 L19,20 C19,20.5522847 18.5522847,21 18,21 L6,21 C5.44771525,21 5,20.5522847 5,20 L5,8 Z M8,11 C7.44771525,11 7,11.4477153 7,12 L7,18 C7,18.5522847 7.44771525,19 8,19 C8.55228475,19 9,18.5522847 9,18 L9,12 C9,11.4477153 8.55228475,11 8,11 Z M12,11 C11.4477153,11 11,11.4477153 11,12 L11,18 C11,18.5522847 11.4477153,19 12,19 C12.5522847,19 13,18.5522847 13,18 L13,12 C13,11.4477153 12.5522847,11 12,11 Z M16,11 C15.4477153,11 15,11.4477153 15,12 L15,18 C15,18.5522847 15.4477153,19 16,19 C16.5522847,19 17,18.5522847 17,18 L17,12 C17,11.4477153 16.5522847,11 16,11 Z" id="Combined-Shape" fill="#4173E3"></path>
        </g>
    </g>
</svg>
