<svg width="32px" height="32px" viewBox="0 0 32 32" version="1.1" xmlns="http://www.w3.org/2000/svg" xmlns:xlink="http://www.w3.org/1999/xlink">
    <g id="icon/magnifier" stroke="none" stroke-width="1" fill="none" fill-rule="evenodd">
        <g id="Group-2">
            <rect id="Rectangle" x="0" y="0" width="32" height="32"></rect>
            <g id="Group" transform="translate(17.788582, 17.800355) rotate(-45.000000) translate(-17.788582, -17.800355) translate(9.788582, 6.300355)" fill="#AFB4BB" fill-rule="nonzero">
                <path d="M7.94760137,14.5176833 C11.5411878,14.5176833 14.4543652,11.588759 14.4543652,7.97574779 C14.4543652,4.36273659 11.5411878,1.43381231 7.94760137,1.43381231 C4.35401496,1.43381231 1.44083758,4.36273659 1.44083758,7.97574779 C1.44083758,11.588759 4.35401496,14.5176833 7.94760137,14.5176833 Z M7.44717107,15.5076327 C3.53404495,15.248724 0.439796998,11.9755393 0.439796998,7.97574779 C0.439796998,3.80688871 3.80115551,0.427360694 7.94760137,0.427360694 C12.0940472,0.427360694 15.4554057,3.80688871 15.4554057,7.97574779 C15.4554057,11.9755396 12.3611574,15.2487244 8.44803085,15.5076328 C8.44809133,15.5121308 8.44812166,15.5166352 8.44812166,15.5211459 L8.44812166,21.5658336 C8.44812166,22.1200307 7.99446405,22.5692962 7.44995271,22.5692962 L8.44525002,22.5692962 C7.89397654,22.5692962 7.44708108,22.1133371 7.44708108,21.5658336 L7.44708108,15.5211459 C7.44708108,15.5166345 7.44711114,15.51213 7.44717107,15.5076327 Z" id="Combined-Shape" transform="translate(7.947601, 11.498328) rotate(-360.000000) translate(-7.947601, -11.498328) "></path>
            </g>
        </g>
    </g>
</svg>
