<svg xmlns="http://www.w3.org/2000/svg" xmlns:xlink="http://www.w3.org/1999/xlink" style="isolation:isolate" viewBox="0 0 32 32" width="32" height="32"><g clip-path="url(#_clipPath_kyzXBSAoRFLpaaJVHNTwboA06X8styg8)"><path d=" M 21.421 21.574 C 25.947 17.048 25.927 9.689 21.376 5.138 C 16.826 0.588 9.467 0.568 4.941 5.094 C 0.415 9.62 0.435 16.979 4.986 21.529 C 9.536 26.08 16.895 26.1 21.421 21.574 Z  M 22.037 23.451 C 16.783 28.054 8.763 27.828 3.725 22.79 C -1.526 17.539 -1.549 9.049 3.674 3.827 C 8.896 -1.396 17.387 -1.373 22.637 3.878 C 27.675 8.916 27.901 16.936 23.298 22.19 C 23.304 22.196 23.309 22.202 23.315 22.207 L 30.929 29.821 C 31.627 30.519 31.621 31.656 30.935 32.342 L 32.189 31.088 C 31.495 31.783 30.357 31.771 29.668 31.082 L 22.054 23.468 C 22.049 23.462 22.043 23.457 22.037 23.451 Z " fill="rgb(175,180,187)"/></g></svg>
