
<svg width="19px" height="18px" viewBox="0 0 19 18" version="1.1" xmlns="http://www.w3.org/2000/svg" xmlns:xlink="http://www.w3.org/1999/xlink">
    <g id="Symbols" stroke="none" stroke-width="1" fill="none" fill-rule="evenodd">
        <g id="left-nav/all-contact" transform="translate(-33.000000, -235.000000)" fill="#5D8DF8">
            <g id="icon/starred" transform="translate(30.000000, 232.000000)">
                <g id="Starred">
                    <path d="M11.5697754,16.8022045 C12.1511805,16.4975153 12.8450853,16.4975153 13.4264904,16.8022045 L16.7313768,18.5341521 L15.8997494,13.8820585 L19.3302128,10.6156343 L14.6057835,9.96062544 L12.4981329,5.70154691 L10.3904822,9.96062544 L5.66605296,10.6156343 L9.09651637,13.8820585 L8.26488898,18.5341521 L11.5697754,16.8022045 Z M18.8797406,19.1867356 C19.0255226,20.0022349 18.4826095,20.7815074 17.6671102,20.9272894 C17.3394804,20.9858579 17.0016761,20.9337993 16.7068804,20.7793096 L12.4981329,18.5736876 L8.28938538,20.7793096 C7.55561306,21.1638479 6.64904321,20.8807378 6.26450494,20.1469654 C6.1100153,19.8521697 6.05795672,19.5143654 6.11652517,19.1867356 L6.93846536,14.5888318 L3.536008,11.3490745 C2.93605277,10.7778082 2.91279583,9.82834548 3.48406217,9.22839026 C3.71800935,8.9826943 4.02833683,8.82356176 4.36438313,8.77697131 L9.06740541,8.12493035 L11.1537398,3.90892713 C11.5211678,3.16643933 12.4209324,2.86239332 13.1634202,3.22982137 C13.4580978,3.37564574 13.6967016,3.61424951 13.842526,3.90892713 L15.9288603,8.12493035 L20.6318826,8.77697131 C21.4524608,8.89073869 22.0254441,9.6481754 21.9116767,10.4687535 C21.8650863,10.8047998 21.7059537,11.1151273 21.4602578,11.3490745 L18.0578004,14.5888318 L18.8797406,19.1867356 Z" id="Star" fill-rule="nonzero"></path>
                </g>
            </g>
        </g>
    </g>
</svg>
