
<svg width="26px" height="24px" viewBox="0 0 26 24" version="1.1" xmlns="http://www.w3.org/2000/svg" xmlns:xlink="http://www.w3.org/1999/xlink">
    <g id="Symbols" stroke="none" stroke-width="1" fill="none" fill-rule="evenodd">
        <g id="left-nav/all-contact" transform="translate(-28.000000, -92.000000)">
            <g id="Group-3" transform="translate(26.000000, 88.000000)">
                <g id="icon/contacts">
                    <g id="Group-15">
                        <g id="contact-icon" transform="translate(2.000000, 4.000000)">
                            <path d="M2,19 L1,19 C0.44771525,19 6.76353751e-17,18.5522847 0,18 C-6.76353751e-17,17.4477153 0.44771525,17 1,17 L2,17 L2,13 L1,13 C0.44771525,13 6.76353751e-17,12.5522847 0,12 C-6.76353751e-17,11.4477153 0.44771525,11 1,11 L2,11 L2,7 L1,7 C0.44771525,7 6.76353751e-17,6.55228475 0,6 C-6.76353751e-17,5.44771525 0.44771525,5 1,5 L2,5 L2,2 C2,0.8954305 2.8954305,2.02906125e-16 4,0 L24,0 C25.1045695,-2.02906125e-16 26,0.8954305 26,2 L26,22 C26,23.1045695 25.1045695,24 24,24 L4,24 C2.8954305,24 2,23.1045695 2,22 L2,19 Z" id="Combined-Shape" fill="#5D8DF8"></path>
                            <g id="Group-2-Copy-4" transform="translate(10.000000, 6.000000)"></g>
                        </g>
                    </g>
                </g>
            </g>
        </g>
    </g>
</svg>
