<svg width="24px" height="24px" viewBox="0 0 24 24" version="1.1" xmlns="http://www.w3.org/2000/svg" xmlns:xlink="http://www.w3.org/1999/xlink">
    <g id="icon/split" stroke="none" stroke-width="1" fill="none" fill-rule="evenodd">
        <g id="Group-24">
            <g id="box-copy-9">
                <rect id="Rectangle" x="0" y="0" width="24" height="24"></rect>
            </g>
            <circle id="Oval" fill="#B0BCDE" cx="12" cy="12" r="12"></circle>
            <path d="M13.6058555,5.09203696 C13.6058555,5.06841959 13.6142144,5.04556439 13.6294517,5.02751982 C13.6650835,4.98532317 13.728176,4.98000134 13.7703726,5.01563317 L19.9697666,10.2505455 C19.9740554,10.2541671 19.9780317,10.2581433 19.9816533,10.2624322 C20.0172851,10.3046288 20.0119633,10.3677213 19.9697666,10.4033531 L13.7703726,15.6382654 C13.752328,15.6535027 13.7294728,15.6618616 13.7058555,15.6618616 C13.650627,15.6618616 13.6058555,15.6170901 13.6058555,15.5618616 L13.6058555,5.09203696 Z M13.6058555,8.09952355 C13.6058555,9.1895712 13.6058555,11.3696665 13.6058555,12.4597141 C8.2271958,12.4597141 6.07573193,15.7298571 5,19 C5,14.9134219 5.65846009,8.09952355 13.6058555,8.09952355 Z" id="Combined-Shape-Copy" fill="#FFFFFF"></path>
        </g>
    </g>
</svg>
