<svg xmlns="http://www.w3.org/2000/svg" xmlns:xlink="http://www.w3.org/1999/xlink" style="isolation:isolate" viewBox="0 0 24 24" width="24" height="24"><g clip-path="url(#_clipPath_Iyjf729H0BtgHHbuqDg8ds88m8VWWC8y)"><circle vector-effect="non-scaling-stroke" cx="12" cy="12" r="12"/><path d=" M 14.606 5.092 C 14.606 5.068 14.614 5.046 14.629 5.028 C 14.665 4.985 14.728 4.98 14.77 5.016 L 20.97 10.251 C 20.974 10.254 20.978 10.258 20.982 10.262 C 21.017 10.305 21.012 10.368 20.97 10.403 L 14.77 15.638 C 14.752 15.654 14.729 15.662 14.706 15.662 C 14.651 15.662 14.606 15.617 14.606 15.562 L 14.606 5.092 Z  M 14.606 8.1 C 14.606 9.19 14.606 11.37 14.606 12.46 C 9.227 12.46 7.076 15.73 6 19 C 6 14.913 6.658 8.1 14.606 8.1 Z " fill-rule="evenodd" fill="rgb(255,255,255)"/></g></svg>
