<svg xmlns="http://www.w3.org/2000/svg" xmlns:xlink="http://www.w3.org/1999/xlink" style="isolation:isolate" viewBox="0 0 24 24" width="24" height="24"><defs><clipPath id="_clipPath_JlA2XEQyXEbvmICR5A5ar3HVhUDSN2Z7"><rect width="24" height="24"/></clipPath></defs><g clip-path="url(#_clipPath_JlA2XEQyXEbvmICR5A5ar3HVhUDSN2Z7)"><g><rect x="-3" y="-2" width="29" height="29" transform="matrix(1,0,0,1,0,0)" fill="none"/><path d=" M 10.98 18.303 C 11.683 17.934 12.521 17.934 13.224 18.303 L 17.217 20.395 L 16.212 14.774 L 20.357 10.827 L 14.649 10.036 L 12.102 4.889 L 9.555 10.036 L 3.846 10.827 L 7.992 14.774 L 6.987 20.395 L 10.98 18.303 Z  M 19.813 21.184 C 19.989 22.169 19.333 23.111 18.348 23.287 C 17.952 23.358 17.544 23.295 17.187 23.108 L 12.102 20.443 L 7.016 23.108 C 6.13 23.573 5.034 23.231 4.57 22.344 C 4.383 21.988 4.32 21.58 4.391 21.184 L 5.384 15.628 L 1.273 11.713 C 0.548 11.023 0.52 9.876 1.21 9.151 C 1.493 8.854 1.868 8.662 2.274 8.606 L 7.956 7.818 L 10.477 2.723 C 10.921 1.826 12.009 1.459 12.906 1.903 C 13.262 2.079 13.55 2.367 13.726 2.723 L 16.247 7.818 L 21.93 8.606 C 22.922 8.743 23.614 9.658 23.477 10.65 C 23.42 11.056 23.228 11.431 22.931 11.713 L 18.82 15.628 L 19.813 21.184 Z " fill="rgb(93,141,248)"/></g></g></svg>
