<svg width="18px" height="18px" viewBox="0 0 18 18" version="1.1" xmlns="http://www.w3.org/2000/svg" xmlns:xlink="http://www.w3.org/1999/xlink">
    <g id="icon/starred-color" stroke="none" stroke-width="1" fill="none" fill-rule="evenodd">
        <g id="Group-Copy">
            <rect id="Rectangle" x="0" y="0" width="18" height="18"></rect>
            <path d="M13.9229959,10.9500699 L14.7922849,15.8827423 C14.8881374,16.4266455 14.5249205,16.9452701 13.9810173,17.0411226 C13.7613429,17.079836 13.5350314,17.0439918 13.3380717,16.93929 L9.15014114,14.7130287 C9.00340064,14.635023 8.82749241,14.635023 8.68075191,14.7130287 L4.49282135,16.93929 C4.00515869,17.1985265 3.39967727,17.0133505 3.14044076,16.5256879 C3.03573899,16.3287282 2.99989478,16.1024167 3.03860818,15.8827423 L3.90789717,10.9500699 L0.305275503,7.47040931 C-0.0919691236,7.08672304 -0.102960345,6.45365347 0.280725922,6.05640884 C0.435691084,5.89596766 0.639849628,5.79194369 0.860735507,5.7608792 L5.82061082,5.06334255 L8.01669336,0.561771492 C8.25884534,0.0654038243 8.85753381,-0.140678705 9.35390148,0.101473279 C9.55437698,0.199274855 9.71639812,0.361295993 9.81419969,0.561771492 L12.0102822,5.06334255 L16.9701575,5.7608792 C17.5170603,5.83779338 17.8980614,6.34349694 17.8211472,6.89039973 C17.7900827,7.1112856 17.6860587,7.31544415 17.5256175,7.47040931 L13.9229959,10.9500699 Z" id="Star" fill="#FFC84A" fill-rule="nonzero"></path>
        </g>
    </g>
</svg>
