<svg xmlns="http://www.w3.org/2000/svg" xmlns:xlink="http://www.w3.org/1999/xlink" style="isolation:isolate" viewBox="0 0 18 18" width="18" height="18"><g clip-path="url(#_clipPath_ti8Rw9VG9OewseDxqRdFJe9JTsye92Ud)"><path d=" M 13.923 11.95 L 14.792 16.883 C 14.888 17.427 14.525 17.945 13.981 18.041 C 13.761 18.08 13.535 18.044 13.338 17.939 L 9.15 15.713 C 9.003 15.635 8.827 15.635 8.681 15.713 L 4.493 17.939 C 4.005 18.199 3.4 18.013 3.14 17.526 C 3.036 17.329 3 17.102 3.039 16.883 L 3.908 11.95 L 0.305 8.47 C -0.092 8.087 -0.103 7.454 0.281 7.056 C 0.436 6.896 0.64 6.792 0.861 6.761 L 5.821 6.063 L 8.017 1.562 C 8.259 1.065 8.858 0.859 9.354 1.101 C 9.554 1.199 9.716 1.361 9.814 1.562 L 12.01 6.063 L 16.97 6.761 C 17.517 6.838 17.898 7.343 17.821 7.89 C 17.79 8.111 17.686 8.315 17.526 8.47 L 13.923 11.95 Z " fill="rgb(255,200,74)"/></g></svg>
