<svg xmlns="http://www.w3.org/2000/svg" xmlns:xlink="http://www.w3.org/1999/xlink" style="isolation:isolate" viewBox="0 0 24 24" width="24" height="24"><g clip-path="url(#_clipPath_5oanpJN576WnMmbeqSUvQ0n4OXLAD5AX)"><path d=" M 10.98 17.303 C 11.683 16.934 12.521 16.934 13.224 17.303 L 17.217 19.395 L 16.212 13.774 L 20.357 9.827 L 14.649 9.036 L 12.102 3.889 L 9.555 9.036 L 3.846 9.827 L 7.992 13.774 L 6.987 19.395 L 10.98 17.303 Z  M 19.813 20.184 C 19.989 21.169 19.333 22.111 18.348 22.287 C 17.952 22.358 17.544 22.295 17.187 22.108 L 12.102 19.443 L 7.016 22.108 C 6.13 22.573 5.034 22.231 4.57 21.344 C 4.383 20.988 4.32 20.58 4.391 20.184 L 5.384 14.628 L 1.273 10.713 C 0.548 10.023 0.52 8.876 1.21 8.151 C 1.493 7.854 1.868 7.662 2.274 7.606 L 7.956 6.818 L 10.477 1.723 C 10.921 0.826 12.009 0.459 12.906 0.903 C 13.262 1.079 13.55 1.367 13.726 1.723 L 16.247 6.818 L 21.93 7.606 C 22.922 7.743 23.614 8.658 23.477 9.65 C 23.42 10.056 23.228 10.431 22.931 10.713 L 18.82 14.628 L 19.813 20.184 Z "/></g></svg>
