<svg xmlns="http://www.w3.org/2000/svg" xmlns:xlink="http://www.w3.org/1999/xlink" style="isolation:isolate" viewBox="0 0 18 18" width="18" height="18"><g clip-path="url(#_clipPath_J2ALKab73yoFevZUoI5H1hrzGsmS8hoX)"><path d=" M 9.704 14.97 L 13.892 17.196 L 12.93 11.74 L 16.915 7.891 L 11.429 7.12 L 9 2.14 L 6.571 7.12 L 1.085 7.891 L 5.07 11.74 L 4.108 17.196 L 8.296 14.97 C 8.736 14.736 9.264 14.736 9.704 14.97 Z  M 14.008 12.09 L 14.877 17.023 C 14.973 17.567 14.609 18.085 14.066 18.181 C 13.846 18.22 13.62 18.184 13.423 18.079 L 9.235 15.853 C 9.088 15.775 8.912 15.775 8.765 15.853 L 4.577 18.079 C 4.09 18.339 3.484 18.153 3.225 17.666 C 3.12 17.469 3.084 17.243 3.123 17.023 L 3.992 12.09 L 0.39 8.611 C -0.007 8.227 -0.018 7.594 0.365 7.197 C 0.52 7.036 0.724 6.932 0.945 6.901 L 5.905 6.203 L 8.101 1.702 C 8.343 1.206 8.942 0.999 9.438 1.242 C 9.639 1.339 9.801 1.501 9.899 1.702 L 12.095 6.203 L 17.055 6.901 C 17.602 6.978 17.983 7.484 17.906 8.031 C 17.875 8.251 17.771 8.456 17.61 8.611 L 14.008 12.09 Z " fill="rgb(209,214,222)"/></g></svg>
