<?xml version="1.0" encoding="UTF-8"?>
<svg width="18px" height="18px" viewBox="0 0 18 18" version="1.1" xmlns="http://www.w3.org/2000/svg" xmlns:xlink="http://www.w3.org/1999/xlink">
    <g id="icon/starred-stroke" stroke="none" stroke-width="1" fill="none" fill-rule="evenodd">
        <g id="Group">
            <rect id="Rectangle" x="0" y="0" width="18" height="18"></rect>
            <path d="M9.70408384,13.9701789 L13.8920144,16.1964402 L12.9304646,10.7402454 L16.9154456,6.89127584 L11.4291607,6.11970711 L9,1.140368 L6.57083927,6.11970711 L1.08455442,6.89127584 L5.06953537,10.7402454 L4.1079856,16.1964402 L8.29591616,13.9701789 C8.73613765,13.7361616 9.26386235,13.7361616 9.70408384,13.9701789 Z M14.0075494,11.0902114 L14.8768383,16.0228839 C14.9726909,16.5667871 14.609474,17.0854116 14.0655708,17.1812641 C13.8458963,17.2199775 13.6195849,17.1841333 13.4226252,17.0794316 L9.23469461,14.8531703 C9.08795412,14.7751645 8.91204588,14.7751645 8.76530539,14.8531703 L4.57737483,17.0794316 C4.08971216,17.3386681 3.48423074,17.1534921 3.22499423,16.6658294 C3.12029247,16.4688698 3.08444825,16.2425583 3.12316165,16.0228839 L3.99245064,11.0902114 L0.389828977,7.61055087 C-0.007415649,7.2268646 -0.0184068704,6.59379503 0.365279397,6.1965504 C0.520244559,6.03610922 0.724403103,5.93208525 0.945288981,5.90102076 L5.9051643,5.20348411 L8.10124683,0.701913049 C8.34339882,0.205545382 8.94208729,-0.000537147591 9.43845495,0.241614837 C9.63893045,0.339416412 9.80095159,0.50143755 9.89875317,0.701913049 L12.0948357,5.20348411 L17.054711,5.90102076 C17.6016138,5.97793494 17.9826148,6.4836385 17.9057007,7.03054128 C17.8746362,7.25142716 17.7706122,7.45558571 17.610171,7.61055087 L14.0075494,11.0902114 Z" id="Star" fill="#D1D6DE" fill-rule="nonzero"></path>
        </g>
    </g>
</svg>
