<svg width="28px" height="28px" viewBox="0 0 28 28" version="1.1" xmlns="http://www.w3.org/2000/svg" xmlns:xlink="http://www.w3.org/1999/xlink">
    <g id="icon/tag" stroke="none" stroke-width="1" fill="none" fill-rule="evenodd">
        <g id="Group-16">
            <rect id="Rectangle-3-Copy-11" x="0" y="0" width="28" height="28"></rect>
            <g id="Group-11" transform="translate(13.562500, 13.562500) rotate(30.000000) translate(-13.562500, -13.562500) translate(7.000000, 1.750000)" fill="#769CEE" fill-rule="nonzero">
                <path d="M9.625,22.3125 L2.625,22.3125 C1.90012627,22.3125 1.3125,21.7248737 1.3125,21 L1.3125,8.75 C1.3125,8.50837542 1.11662458,8.3125 0.875,8.3125 C0.633375422,8.3125 0.4375,8.50837542 0.4375,8.75 L0.4375,21 C0.4375,22.2081229 1.41687711,23.1875 2.625,23.1875 L9.625,23.1875 C9.86662458,23.1875 10.0625,22.9916246 10.0625,22.75 C10.0625,22.5083754 9.86662458,22.3125 9.625,22.3125 Z" id="Rectangle-28-Copy"></path>
                <g id="Group-10" transform="translate(2.625000, 0.000000)">
                    <path d="M1.75,19.25 L8.75,19.25 L8.75,5.97487373 L5.25,2.47487373 L1.75,5.97487373 L1.75,19.25 Z M0.256281566,4.99371843 L4.01256313,1.23743687 C4.69598064,0.554019357 5.80401936,0.554019357 6.48743687,1.23743687 L10.2437184,4.99371843 C10.4078128,5.15781276 10.5,5.38037244 10.5,5.61243687 L10.5,19.25 C10.5,20.2164983 9.71649831,21 8.75,21 L1.75,21 C0.783501688,21 0,20.2164983 0,19.25 L0,5.61243687 C0,5.38037244 0.0921872353,5.15781276 0.256281566,4.99371843 Z" id="Rectangle-28"></path>
                    <path d="M5.25,9.1875 C4.04187711,9.1875 3.0625,8.20812289 3.0625,7 C3.0625,5.79187711 4.04187711,4.8125 5.25,4.8125 C6.45812289,4.8125 7.4375,5.79187711 7.4375,7 C7.4375,8.20812289 6.45812289,9.1875 5.25,9.1875 Z M5.25,8.3125 C5.97487373,8.3125 6.5625,7.72487373 6.5625,7 C6.5625,6.27512627 5.97487373,5.6875 5.25,5.6875 C4.52512627,5.6875 3.9375,6.27512627 3.9375,7 C3.9375,7.72487373 4.52512627,8.3125 5.25,8.3125 Z" id="Oval-10"></path>
                </g>
            </g>
        </g>
    </g>
</svg>
