<svg xmlns="http://www.w3.org/2000/svg" xmlns:xlink="http://www.w3.org/1999/xlink" style="isolation:isolate" viewBox="0 0 28 28" width="28" height="28"><g clip-path="url(#_clipPath_lGlfuW45f1YakhGHSgoR2Tx7SpwoVOCa)"><path d=" M 10.489 26.961 L 2.478 22.336 C 1.649 21.857 1.365 20.797 1.844 19.967 L 9.937 5.948 C 10.097 5.672 10.002 5.318 9.726 5.159 C 9.449 4.999 9.096 5.094 8.936 5.37 L 0.842 19.389 C 0.044 20.772 0.518 22.54 1.9 23.338 L 9.911 27.963 C 10.187 28.122 10.541 28.028 10.701 27.751 C 10.86 27.475 10.766 27.121 10.489 26.961 Z "/><path d=" M 6.504 19.988 L 14.515 24.613 L 23.286 9.421 L 21.593 3.103 L 15.276 4.796 L 6.504 19.988 Z  M 14.214 2.686 L 20.995 0.869 C 22.229 0.539 23.497 1.271 23.827 2.505 L 25.644 9.285 C 25.723 9.581 25.682 9.897 25.528 10.163 L 16.518 25.769 C 15.879 26.875 14.465 27.254 13.359 26.616 L 5.348 21.991 C 4.242 21.352 3.863 19.938 4.502 18.832 L 13.512 3.225 C 13.666 2.959 13.918 2.766 14.214 2.686 Z "/><path d=" M 17.158 10.785 C 15.776 9.987 15.302 8.219 16.1 6.836 C 16.898 5.454 18.666 4.98 20.049 5.778 C 21.431 6.577 21.905 8.344 21.107 9.727 C 20.309 11.11 18.541 11.583 17.158 10.785 Z  M 17.736 9.784 C 18.566 10.263 19.627 9.978 20.106 9.149 C 20.585 8.319 20.3 7.259 19.471 6.78 C 18.641 6.301 17.58 6.585 17.102 7.414 C 16.623 8.244 16.907 9.305 17.736 9.784 Z "/></g></svg>
