<svg xmlns="http://www.w3.org/2000/svg" xmlns:xlink="http://www.w3.org/1999/xlink" style="isolation:isolate" viewBox="0 0 24 24" width="24" height="24"><g clip-path="url(#_clipPath_lAwgfxHkzpkml1vu7hXFdGdkGkiHmKk2)"><path d=" M 4.222 2 L 4.222 22 L 19.778 22 L 19.778 2 L 4.222 2 Z  M 4.222 -0.222 L 19.778 -0.222 C 21.005 -0.222 22 0.773 22 2 L 22 22 C 22 23.227 21.005 24.222 19.778 24.222 L 4.222 24.222 C 2.995 24.222 2 23.227 2 22 L 2 2 C 2 0.773 2.995 -0.222 4.222 -0.222 Z " /><path d="M 7 5.333 L 17 5.333 C 17.307 5.333 17.556 5.582 17.556 5.889 L 17.556 5.889 C 17.556 6.196 17.307 6.444 17 6.444 L 7 6.444 C 6.693 6.444 6.444 6.196 6.444 5.889 L 6.444 5.889 C 6.444 5.582 6.693 5.333 7 5.333 Z" style="stroke:none;stroke-miterlimit:10;"/><path d="M 7 8.667 L 13.667 8.667 C 13.973 8.667 14.222 8.916 14.222 9.222 L 14.222 9.222 C 14.222 9.529 13.973 9.778 13.667 9.778 L 7 9.778 C 6.693 9.778 6.444 9.529 6.444 9.222 L 6.444 9.222 C 6.444 8.916 6.693 8.667 7 8.667 Z" style="stroke:none;stroke-miterlimit:10;"/><path d="M 7 12 L 15.889 12 C 16.196 12 16.444 12.249 16.444 12.556 L 16.444 12.556 C 16.444 12.862 16.196 13.111 15.889 13.111 L 7 13.111 C 6.693 13.111 6.444 12.862 6.444 12.556 L 6.444 12.556 C 6.444 12.249 6.693 12 7 12 Z" style="stroke:none;stroke-miterlimit:10;"/><path d="M 7 15.333 L 17 15.333 C 17.307 15.333 17.556 15.582 17.556 15.889 L 17.556 19.222 C 17.556 19.529 17.307 19.778 17 19.778 L 7 19.778 C 6.693 19.778 6.444 19.529 6.444 19.222 L 6.444 15.889 C 6.444 15.582 6.693 15.333 7 15.333 Z" style="stroke:none;stroke-miterlimit:10;"/></g></svg>
