<svg width="24px" height="24px" viewBox="0 0 24 24" version="1.1" xmlns="http://www.w3.org/2000/svg" xmlns:xlink="http://www.w3.org/1999/xlink">
    <g id="icon/waivers" stroke="none" stroke-width="1" fill="none" fill-rule="evenodd">
        <g id="Group-25">
            <g id="Group-24">
                <rect id="Rectangle-3-Copy-14" x="0" y="0" width="24" height="24"></rect>
                <path d="M5,3 L5,21 L19,21 L19,3 L5,3 Z M5,1 L19,1 C20.1045695,1 21,1.8954305 21,3 L21,21 C21,22.1045695 20.1045695,23 19,23 L5,23 C3.8954305,23 3,22.1045695 3,21 L3,3 C3,1.8954305 3.8954305,1 5,1 Z" id="Rectangle-29" fill="#769CEE" fill-rule="nonzero"></path>
            </g>
            <rect id="Rectangle-31" fill="#769CEE" x="7" y="6" width="10" height="1" rx="0.5"></rect>
            <rect id="Rectangle-31-Copy" fill="#769CEE" x="7" y="9" width="7" height="1" rx="0.5"></rect>
            <rect id="Rectangle-31-Copy-2" fill="#769CEE" x="7" y="12" width="9" height="1" rx="0.5"></rect>
            <rect id="Rectangle-31-Copy-3" fill="#769CEE" x="7" y="15" width="10" height="4" rx="0.5"></rect>
        </g>
    </g>
</svg>
