<?xml version="1.0" encoding="UTF-8"?>
<svg width="20px" height="20px" viewBox="0 0 20 20" version="1.1" xmlns="http://www.w3.org/2000/svg" xmlns:xlink="http://www.w3.org/1999/xlink">
    <!-- Generator: Sketch 54.1 (76490) - https://sketchapp.com -->
    <title>navbar_icon_dashboard</title>
    <desc>Created with Sketch.</desc>
    <g id="窄屏sidebar设计" stroke="none" stroke-width="1" fill="none" fill-rule="evenodd">
        <g id="01sidebar_收起" transform="translate(-237.000000, -18.000000)">
            <g id="navbar_icon_dashboard" transform="translate(235.000000, 16.000000)">
                <rect id="bound" x="0" y="0" width="24" height="24"></rect>
                <g id="yibiaopan-7" transform="translate(2.000000, 2.000000)" fill-rule="nonzero">
                    <path d="M10,0 C15.51375,0 20,4.48625 20,10 C20,15.51375 15.51375,20 10,20 C4.48625,20 0,15.51375 0,10 C0,4.48625 4.48625,0 10,0 Z" id="Shape" fill="#FFFFFF"></path>
                    <path d="M10.35375,3.255 C9.34699363,3.2177817 8.34321882,3.38621171 7.40375,3.75 C7.17269778,3.82980505 7.00374926,4.02952327 6.96334974,4.27060801 C6.92295023,4.51169276 7.01756257,4.7555769 7.20997693,4.9063439 C7.40239129,5.0571109 7.66182651,5.09064206 7.88625,4.99375 C9.80556078,4.25672747 11.9664956,4.53052031 13.6413456,5.722927 C15.3161955,6.91533369 16.2820871,8.86767978 16.21375,10.9225 C16.1990622,11.164655 16.3169146,11.395714 16.5215646,11.5259951 C16.7262145,11.6562762 16.9854377,11.6652652 17.1986207,11.5494732 C17.4118036,11.4336811 17.5453784,11.2113407 17.5475,10.96875 C17.6866423,6.85382353 14.4683703,3.40291885 10.35375,3.255 Z" id="Path" stroke="#4073E3" stroke-width="0.4" fill="#4173E3"></path>
                    <path d="M4.1875,7.87375 C3.84715714,7.73543571 3.45907947,7.89871911 3.32,8.23875 C2.94020984,9.16975352 2.75433689,10.1684484 2.77375,11.17375 C2.768133,11.4180546 2.89671171,11.6458294 3.10878058,11.7672505 C3.32084945,11.8886715 3.58237249,11.8842514 3.79021703,11.7557332 C3.99806158,11.627215 4.11886961,11.3952252 4.105,11.15125 C4.08886563,10.3258553 4.24113129,9.5058324 4.5525,8.74125 C4.61927404,8.57782281 4.61832296,8.39455092 4.54985638,8.23182556 C4.4813898,8.06910019 4.35102751,7.94027798 4.1875,7.87375 L4.1875,7.87375 Z" id="Path" stroke="#4073E3" stroke-width="0.4" fill="#4173E3"></path>
                    <path d="M10.1475,8.2725 C9.685,8.2725 9.2575,8.40625 8.885,8.62625 L5.81625,5.5575 C5.65932846,5.39502713 5.42695132,5.32986713 5.20843292,5.38706428 C4.98991453,5.44426143 4.81926143,5.61491453 4.76206428,5.83343292 C4.70486713,6.05195132 4.77002713,6.28432846 4.9325,6.44125 L8.00125,9.51 C7.77158116,9.8912069 7.64934468,10.3274572 7.6475,10.7725 C7.6475,12.15125 8.76875,13.2725 10.1475,13.2725 C11.52625,13.2725 12.6475,12.15125 12.6475,10.7725 C12.6475,9.39375 11.52625,8.2725 10.1475,8.2725 L10.1475,8.2725 Z" id="Path" stroke="#4073E3" stroke-width="0.4" fill="#4173E3"></path>
                    <path d="M10.1475,12.0225 C9.47886629,11.9925903 8.95216567,11.4418023 8.95216567,10.7725 C8.95216567,10.1031977 9.47886629,9.55240968 10.1475,9.5225 C10.8161337,9.55240968 11.3428343,10.1031977 11.3428343,10.7725 C11.3428343,11.4418023 10.8161337,11.9925903 10.1475,12.0225 Z" id="Path" fill="#FFFFFF"></path>
                </g>
            </g>
        </g>
    </g>
</svg>