<?xml version="1.0" encoding="UTF-8"?>
<svg width="19px" height="20px" viewBox="0 0 19 20" version="1.1" xmlns="http://www.w3.org/2000/svg" xmlns:xlink="http://www.w3.org/1999/xlink">
    <!-- Generator: Sketch 54.1 (76490) - https://sketchapp.com -->
    <title>navbar_icon_waiverlist</title>
    <desc>Created with Sketch.</desc>
    <g id="窄屏sidebar设计" stroke="none" stroke-width="1" fill="none" fill-rule="evenodd">
        <g id="01sidebar_收起" transform="translate(-467.000000, -19.000000)">
            <g id="navbar_icon_waiverlist" transform="translate(464.000000, 17.000000)">
                <rect id="bound" x="0" y="0" width="24" height="24"></rect>
                <g id="编组-4" transform="translate(3.000000, 2.000000)" fill="#FFFFFF">
                    <path d="M14,0 L16,0 C17.6568542,-3.04359188e-16 19,1.34314575 19,3 L19,17 C19,18.6568542 17.6568542,20 16,20 L14,20 L14,0 Z" id="Rectangle-161-Copy" opacity="0.3"></path>
                    <path d="M1,0 L13,0 C14.6568542,-3.04359188e-16 16,1.34314575 16,3 L16,17 C16,18.6568542 14.6568542,20 13,20 L1,20 C0.44771525,20 6.76353751e-17,19.5522847 0,19 L0,1 C-6.76353751e-17,0.44771525 0.44771525,1.01453063e-16 1,0 Z M7,6 C6.44771525,6 6,6.44771525 6,7 C6,7.55228475 6.44771525,8 7,8 L12,8 C12.5522847,8 13,7.55228475 13,7 C13,6.44771525 12.5522847,6 12,6 L7,6 Z M4,6 C3.44771525,6 3,6.44771525 3,7 C3,7.55228475 3.44771525,8 4,8 C4.55228475,8 5,7.55228475 5,7 C5,6.44771525 4.55228475,6 4,6 Z M4,10 C3.44771525,10 3,10.4477153 3,11 C3,11.5522847 3.44771525,12 4,12 C4.55228475,12 5,11.5522847 5,11 C5,10.4477153 4.55228475,10 4,10 Z M7,10 C6.44771525,10 6,10.4477153 6,11 C6,11.5522847 6.44771525,12 7,12 L12,12 C12.5522847,12 13,11.5522847 13,11 C13,10.4477153 12.5522847,10 12,10 L7,10 Z M4,14 C3.44771525,14 3,14.4477153 3,15 C3,15.5522847 3.44771525,16 4,16 C4.55228475,16 5,15.5522847 5,15 C5,14.4477153 4.55228475,14 4,14 Z M7,14 C6.44771525,14 6,14.4477153 6,15 C6,15.5522847 6.44771525,16 7,16 L12,16 C12.5522847,16 13,15.5522847 13,15 C13,14.4477153 12.5522847,14 12,14 L7,14 Z" id="形状结合"></path>
                </g>
            </g>
        </g>
    </g>
</svg>