<svg width="71px" height="67px" viewBox="0 0 71 67" version="1.1" xmlns="http://www.w3.org/2000/svg" xmlns:xlink="http://www.w3.org/1999/xlink">
    <g id="console" stroke="none" stroke-width="1" fill="none" fill-rule="evenodd">
        <g id="loading" transform="translate(-925.000000, -565.000000)" fill="#4173E3">
            <g transform="translate(918.000000, 565.000000)" id="Page-1">
                <path d="M67.0211407,50.7711111 C67.0211407,51.0688889 67.1693411,51.2177778 67.4657418,51.2177778 C67.7621425,51.2177778 67.9103428,51.0688889 67.9103428,50.7711111 C67.9103428,50.4733333 67.7621425,50.3244444 67.4657418,50.3244444 C67.1693411,50.3244444 67.0211407,50.4733333 67.0211407,50.7711111 Z M57.5363185,60.6722222 C57.5363185,61.2181513 57.8327192,61.4911111 58.4255206,61.4911111 C59.018322,61.4911111 59.3147227,61.1933362 59.3147227,60.5977778 C59.3147227,60.1014789 59.018322,59.8533333 58.4255206,59.8533333 C57.8327192,59.8533333 57.5363185,60.1262931 57.5363185,60.6722222 Z M44.6428883,65.7344444 C44.6428883,66.5781524 45.0874893,67 45.9766914,67 C46.8658935,67 47.3104945,66.6029669 47.3104945,65.8088889 C47.3104945,64.9155508 46.8658935,64.4688889 45.9766914,64.4688889 C45.0874893,64.4688889 44.6428883,64.8907366 44.6428883,65.7344444 Z M30.8602559,65.0644444 C30.8602559,65.5607433 31.0331548,65.982591 31.3789619,66.33 C31.7247595,66.6774092 32.1199542,66.8511111 32.5645647,66.8511111 C33.0091657,66.8511111 33.4043603,66.6774092 33.7501675,66.33 C34.0959651,65.982591 34.2688639,65.5607433 34.2688639,65.0644444 C34.2688639,64.5681456 34.0959651,64.1462979 33.7501675,63.7988889 C33.4043603,63.4514799 33.0091657,63.2777778 32.5645647,63.2777778 C32.1199542,63.2777778 31.7247595,63.4514799 31.3789619,63.7988889 C31.0331548,64.1462979 30.8602559,64.5681456 30.8602559,65.0644444 Z M18.5596271,58.8111111 C18.5596271,59.4066695 18.7819229,59.9029607 19.2265334,60.3 C19.6711344,60.6970393 20.1898309,60.8955556 20.7826323,60.8955556 C21.3754337,60.8955556 21.8694317,60.6970393 22.2646358,60.3 C22.6598399,59.9029607 22.8574372,59.4066695 22.8574372,58.8111111 C22.8574372,58.2155527 22.6598399,57.6944464 22.2646358,57.2477825 C21.8694317,56.8011063 21.3754337,56.5777778 20.7826323,56.5777778 C20.1898309,56.5777778 19.6711344,56.8011063 19.2265334,57.2477825 C18.7819229,57.6944464 18.5596271,58.2155527 18.5596271,58.8111111 Z M10.1122073,48.0166714 C10.1122073,48.7611159 10.3592053,49.3814751 10.853209,49.8777778 C11.3472127,50.3740804 11.9647078,50.6222222 12.7057134,50.6222222 C13.4467189,50.6222222 14.064214,50.3740804 14.5582177,49.8777778 C15.0522214,49.3814751 15.2992195,48.7363026 15.2992195,47.9422222 C15.2992195,47.2474042 15.0522214,46.6518582 14.5582177,46.1555556 C14.064214,45.6592529 13.4467189,45.4111111 12.7057134,45.4111111 C11.9647078,45.4111111 11.3472127,45.6592529 10.853209,46.1555556 C10.3592053,46.6518582 10.1122073,47.2722175 10.1122073,48.0166714 Z M7,34.7655508 C7,35.6092672 7.27169795,36.3288889 7.81510191,36.9244444 C8.35850635,37.52 9.0501007,37.8177778 9.88990678,37.8177778 C10.7297129,37.8177778 11.4460076,37.52 12.0388118,36.9244444 C12.631616,36.3288889 12.9280139,35.6092672 12.9280139,34.7655508 C12.9280139,33.9218439 12.631616,33.2022222 12.0388118,32.6066667 C11.4460076,32.0111111 10.7297129,31.7133333 9.88990678,31.7133333 C9.0501007,31.7133333 8.35850635,32.0111111 7.81510191,32.6066667 C7.27169795,33.2022222 7,33.9218439 7,34.7655508 Z M9.51940591,21.6633286 C9.51940591,22.6062979 9.86520356,23.425182 10.5568083,24.12 C11.2484131,24.814818 12.0635074,25.1622222 13.0021141,25.1622222 C13.9407207,25.1622222 14.755815,24.814818 15.4474198,24.12 C16.1390246,23.425182 16.4848222,22.6062979 16.4848222,21.6633286 C16.4848222,20.7203688 16.1390246,19.9014847 15.4474198,19.2066667 C14.755815,18.5118487 13.9407207,18.1644444 13.0021141,18.1644444 C12.0635074,18.1644444 11.2484131,18.5118487 10.5568083,19.2066667 C9.86520356,19.9014847 9.51940591,20.7203688 9.51940591,21.6633286 Z M17.3740243,11.092227 C17.3740243,12.1344492 17.7692189,13.0525862 18.5596271,13.8466667 C19.3500353,14.6407471 20.2639264,15.0377778 21.3013383,15.0377778 C22.3387407,15.0377778 23.2526318,14.6407471 24.04304,13.8466667 C24.8334481,13.0525862 25.2286427,12.1344492 25.2286427,11.092227 C25.2286427,10.0499952 24.8334481,9.15667143 24.04304,8.41222699 C23.2526318,7.66777301 22.3387407,7.29555556 21.3013383,7.29555556 C20.2639264,7.29555556 19.3500353,7.66777301 18.5596271,8.41222699 C17.7692189,9.15667143 17.3740243,10.0499952 17.3740243,11.092227 Z M28.9336514,5.06222222 C28.9336514,6.25334286 29.3535445,7.2707328 30.1933591,8.11444921 C31.0331642,8.95815609 32.0458492,9.38 33.2314615,9.38 C34.4170738,9.38 35.4297587,8.95815609 36.2695639,8.11444921 C37.1093785,7.2707328 37.5292716,6.25334286 37.5292716,5.06222222 C37.5292716,3.87110158 37.1093785,2.85371164 36.2695639,2.00999524 C35.4297587,1.16628836 34.4170738,0.744444444 33.2314615,0.744444444 C32.0458492,0.744444444 31.0331642,1.16628836 30.1933591,2.00999524 C29.3535445,2.85371164 28.9336514,3.87110158 28.9336514,5.06222222 Z M41.975282,4.68999524 C41.975282,6.03000476 42.4445815,7.14666667 43.3831806,8.04 C44.3217891,8.93333333 45.4332869,9.38 46.7176931,9.38 C48.0020993,9.38 49.1135972,8.93333333 50.0522057,8.04 C50.9908047,7.14666667 51.4601042,6.00519154 51.4601042,4.61555556 C51.4601042,3.32518201 50.9908047,2.23333333 50.0522057,1.34 C49.1135972,0.446666667 48.0020993,-1.38555833e-13 46.7176931,-1.38555833e-13 C45.4332869,-1.38555833e-13 44.3217891,0.446666667 43.3831806,1.34 C42.4445815,2.23333333 41.975282,3.34999524 41.975282,4.68999524 Z M53.8313098,10.0499952 C53.8313098,11.4892672 54.3253078,12.705182 55.3133133,13.6977778 C56.3013187,14.6903735 57.5116105,15.1866667 58.9442265,15.1866667 C60.376833,15.1866667 61.6118233,14.6903735 62.6492257,13.6977778 C63.6866376,12.705182 64.2053341,11.4892672 64.2053341,10.0499952 C64.2053341,8.6107328 63.6866376,7.39481799 62.6492257,6.40222222 C61.6118233,5.40962645 60.376833,4.91333333 58.9442265,4.91333333 C57.5116105,4.91333333 56.3013187,5.40962645 55.3133133,6.40222222 C54.3253078,7.39481799 53.8313098,8.6107328 53.8313098,10.0499952 Z M62.2787296,20.1744397 C62.2787296,21.7129741 62.8221246,23.0281418 63.9089334,24.12 C64.9957423,25.2118582 66.304828,25.7577778 67.8362474,25.7577778 C69.3676573,25.7577778 70.676743,25.2118582 71.7635518,24.12 C72.8503607,23.0281418 73.3937557,21.6881513 73.3937557,20.1 C73.3937557,18.6111016 72.8503607,17.3207471 71.7635518,16.2288889 C70.676743,15.1370307 69.3676573,14.5911111 67.8362474,14.5911111 C66.304828,14.5911111 64.9957423,15.1370307 63.9089334,16.2288889 C62.8221246,17.3207471 62.2787296,18.6359148 62.2787296,20.1744397 Z M65.6873376,33.2022222 C65.6873376,34.889636 66.255431,36.3288794 67.3916368,37.52 C68.5278522,38.7111206 69.9357412,39.3066667 71.6153515,39.3066667 C73.2949617,39.3066667 74.7275493,38.7111206 75.9131616,37.52 C77.0987738,36.3288794 77.6915657,34.889636 77.6915657,33.2022222 C77.6915657,31.5148085 77.0987738,30.0755651 75.9131616,28.8844444 C74.7275493,27.6933238 73.2949617,27.0977778 71.6153515,27.0977778 C69.9357412,27.0977778 68.5278522,27.6933238 67.3916368,28.8844444 C66.255431,30.0755651 65.6873376,31.5148085 65.6873376,33.2022222 Z"></path>
            </g>
        </g>
    </g>
</svg>
