<svg width="184px" height="26px" viewBox="0 0 184 26" version="1.1" xmlns="http://www.w3.org/2000/svg" xmlns:xlink="http://www.w3.org/1999/xlink">
    <g id="console" stroke="none" stroke-width="1" fill="none" fill-rule="evenodd">
        <g id="1-lg" transform="translate(-315.000000, -240.000000)" fill="#FFFFFF">
            <g id="top" transform="translate(276.000000, 218.000000)">
                <g id="logo" transform="translate(39.000000, 22.000000)">
                    <g id="logo-copy-2" transform="translate(0.000000, 0.482464)">
                        <polygon id="Fill-1" points="22.9510633 14.596633 7.29021102 13.4916906 0 16.7975429 22.9510633 18.4168955 40.8017452 9.19921644 34.0517901 8.86471601"></polygon>
                        <polygon id="Fill-2" points="22.9510633 21.2609378 7.29021102 20.1409687 0 23.3818147 22.9510633 25.0011261 40.8017452 15.7833235 34.0517901 15.513253"></polygon>
                        <path d="M38.5662992,0.0625361416 C38.5662992,0.0596131225 38.5641775,0.0571017962 38.563035,0.0548374856 C38.5475304,0.0226431059 38.5146034,0 38.4764945,0 C38.4434043,0 38.4142719,0.0170029141 38.3968087,0.0428572241 L38.3965639,0.0430630705 C37.571471,1.24985828 36.0568694,1.67435476 34.1536312,1.70848409 C31.1367502,1.76204533 22.0996941,1.1107061 22.0996941,1.1107061 L19.1260629,0.963443572 L0,9.63657652 L22.9510633,11.2556409 L33.5493982,5.78276106 C34.5073416,5.23216307 38.7030666,3.05175548 38.5662992,0.0625361416" id="Fill-3"></path>
                    </g>
                    <path d="M53.7038443,4.62483106 L55.5440751,12.5897277 L55.9404325,14.8074418 L56.346227,12.6369131 L57.9127825,4.62483106 L60.9798339,4.62483106 L62.6313232,12.5897277 L63.0559918,14.8074418 L63.4806605,12.6746614 L65.3397655,4.62483106 L68.2935719,4.62483106 L64.3771832,18.5350889 L61.6026813,18.5350889 L59.9228808,10.4003248 L59.4321526,7.71075663 L58.9414244,10.4003248 L57.2616239,18.5350889 L54.5626187,18.5350889 L50.6179187,4.62483106 L53.7038443,4.62483106 Z M74.7957209,13.5334358 C74.6258526,13.6403899 74.454414,13.7268956 74.2814,13.7929555 C74.108386,13.8590154 73.8708885,13.9203558 73.5689004,13.9769786 L72.9649272,14.0902236 C72.3986994,14.1908863 71.992909,14.3135671 71.7475437,14.4582697 C71.33231,14.7036351 71.1246963,15.0842602 71.1246963,15.6001566 C71.1246963,16.0594302 71.2520956,16.3912975 71.5068981,16.5957687 C71.7617006,16.8002398 72.0715483,16.9024738 72.4364506,16.9024738 C73.0152611,16.9024738 73.5484509,16.732608 74.0360359,16.3928714 C74.5236208,16.0531348 74.7768467,15.4334393 74.7957209,14.5337664 L74.7957209,13.5334358 Z M73.1631059,12.278304 C73.660128,12.2153898 74.0155878,12.1367482 74.229496,12.0423769 C74.6132726,11.8788 74.805158,11.6240014 74.805158,11.2779734 C74.805158,10.8564483 74.6588847,10.5654745 74.3663337,10.4050433 C74.0737827,10.2446122 73.6443998,10.1643978 73.0781721,10.1643978 C72.4427388,10.1643978 71.9929091,10.3216809 71.7286695,10.6362518 C71.5399269,10.8690343 71.4141004,11.1836006 71.3511863,11.57996 L68.7559889,11.57996 C68.8126117,10.680287 69.0642647,9.9410564 69.5109554,9.36224586 C70.2218857,8.45628153 71.4424027,8.00330615 73.1725429,8.00330615 C74.2987069,8.00330615 75.2990275,8.22664818 76.1735348,8.67333893 C77.048042,9.12002967 77.4852891,9.96306717 77.4852891,11.2024767 L77.4852891,15.9210173 C77.4852891,16.2481711 77.4915804,16.6445246 77.5041632,17.1100896 C77.5230375,17.4624091 77.5765138,17.7014794 77.6645936,17.8273078 C77.7526735,17.9531361 77.8847913,18.056943 78.060951,18.1387314 L78.060951,18.5350889 L75.1354558,18.5350889 C75.0536674,18.327472 74.9970455,18.132441 74.9655884,17.9499898 C74.9341313,17.7675387 74.908966,17.559925 74.8900917,17.3271425 C74.518898,17.7297933 74.0910879,18.0726705 73.6066487,18.3557843 C73.0278381,18.6892295 72.3735404,18.8559496 71.6437358,18.8559496 C70.7126058,18.8559496 69.9434913,18.5901412 69.3363694,18.0585163 C68.7292475,17.5268914 68.4256911,16.7735052 68.4256911,15.7983353 C68.4256911,14.5337601 68.9132687,13.6183723 69.8884387,13.0521446 C70.4232093,12.7438651 71.2096248,12.5236687 72.247709,12.3915489 L73.1631059,12.278304 Z M82.6379355,7.0218497 L79.910619,7.0218497 L79.910619,4.53989733 L82.6379355,4.53989733 L82.6379355,7.0218497 Z M79.910619,8.24867027 L82.6379355,8.24867027 L82.6379355,18.5350889 L79.910619,18.5350889 L79.910619,8.24867027 Z M91.5842885,8.24867027 L94.4720354,8.24867027 L90.7632624,18.5350889 L87.922701,18.5350889 L84.2328022,8.24867027 L87.2526682,8.24867027 L89.3948857,15.8360836 L91.5842885,8.24867027 Z M98.6007584,10.7778081 C98.2578761,11.167876 98.0423982,11.6963473 97.9543184,12.3632377 L102.134945,12.3632377 C102.090905,11.6523074 101.875428,11.1128263 101.488505,10.7447783 C101.101583,10.3767303 100.62187,10.192709 100.04935,10.192709 C99.4264999,10.192709 98.9436408,10.3877401 98.6007584,10.7778081 Z M102.361435,8.45628606 C103.0472,8.77714842 103.613419,9.28360005 104.06011,9.97565614 C104.462761,10.5859238 104.723851,11.2936978 104.843388,12.0989994 C104.912593,12.5708559 104.940904,13.2503189 104.928321,14.137409 L97.8882588,14.137409 C97.9260073,15.1692017 98.2500105,15.892704 98.8602782,16.3079377 C99.2314719,16.5658859 99.6781559,16.694858 100.200344,16.694858 C100.753989,16.694858 101.203818,16.5375749 101.549846,16.2230039 C101.738589,16.0531356 101.905309,15.817211 102.050012,15.5152229 L104.796202,15.5152229 C104.726997,16.1254905 104.409285,16.745186 103.843057,17.3743279 C102.962258,18.3746635 101.729159,18.8748238 100.143721,18.8748238 C98.8351061,18.8748238 97.680648,18.453305 96.6803124,17.6102549 C95.6799768,16.7672048 95.1798165,15.395696 95.1798165,13.4956875 C95.1798165,11.7152159 95.631219,10.3499984 96.5340376,9.39999418 C97.4368563,8.44998992 98.6086155,7.97499491 100.04935,7.97499491 C100.904983,7.97499491 101.675671,8.13542369 102.361435,8.45628606 Z M112.454394,8.0080247 C112.488997,8.0111704 112.566065,8.0158889 112.685602,8.02218032 L112.685602,10.7778081 C112.515734,10.7589338 112.364742,10.7463511 112.232622,10.7400597 C112.100503,10.7337683 111.99355,10.7306226 111.911762,10.7306226 C110.829638,10.7306226 110.10299,11.0829368 109.731796,11.7875757 C109.524179,12.1839351 109.420372,12.7941936 109.420372,13.6183695 L109.420372,18.5350889 L106.71193,18.5350889 L106.71193,8.24867027 L109.278816,8.24867027 L109.278816,10.0417157 C109.69405,9.35595104 110.055801,8.88724736 110.36408,8.6355906 C110.867394,8.21406553 111.521692,8.00330615 112.326993,8.00330615 C112.377325,8.00330615 112.419791,8.00487899 112.454394,8.0080247 Z M114.478648,4.64370522 L124.340398,4.64370522 L124.340398,7.08790927 L117.366395,7.08790927 L117.366395,10.2870798 L123.472186,10.2870798 L123.472186,12.7029726 L117.366395,12.7029726 L117.366395,18.5350889 L114.478648,18.5350889 L114.478648,4.64370522 Z M132.494036,15.7983353 C132.915561,15.238399 133.12632,14.4425464 133.12632,13.4107537 C133.12632,12.378961 132.915561,11.5846813 132.494036,11.0278907 C132.072511,10.4711001 131.468544,10.192709 130.682116,10.192709 C129.895689,10.192709 129.290149,10.4711001 128.865478,11.0278907 C128.440807,11.5846813 128.228475,12.378961 128.228475,13.4107537 C128.228475,14.4425464 128.440807,15.238399 128.865478,15.7983353 C129.290149,16.3582716 129.895689,16.6382355 130.682116,16.6382355 C131.468544,16.6382355 132.072511,16.3582716 132.494036,15.7983353 Z M134.64569,17.2846756 C133.777475,18.3573625 132.459442,18.8936979 130.691553,18.8936979 C128.923665,18.8936979 127.605632,18.3573625 126.737416,17.2846756 C125.8692,16.2119887 125.435099,14.9206943 125.435099,13.4107537 C125.435099,11.9259788 125.8692,10.639403 126.737416,9.55098748 C127.605632,8.462572 128.923665,7.91837242 130.691553,7.91837242 C132.459442,7.91837242 133.777475,8.462572 134.64569,9.55098748 C135.513906,10.639403 135.948008,11.9259788 135.948008,13.4107537 C135.948008,14.9206943 135.513906,16.2119887 134.64569,17.2846756 Z M143.587325,8.0080247 C143.621928,8.0111704 143.698996,8.0158889 143.818533,8.02218032 L143.818533,10.7778081 C143.648665,10.7589338 143.497673,10.7463511 143.365553,10.7400597 C143.233434,10.7337683 143.126481,10.7306226 143.044693,10.7306226 C141.962569,10.7306226 141.235921,11.0829368 140.864727,11.7875757 C140.65711,12.1839351 140.553303,12.7941936 140.553303,13.6183695 L140.553303,18.5350889 L137.844861,18.5350889 L137.844861,8.24867027 L140.411747,8.24867027 L140.411747,10.0417157 C140.826981,9.35595104 141.188732,8.88724736 141.497011,8.6355906 C142.000325,8.21406553 142.654623,8.00330615 143.459924,8.00330615 C143.510256,8.00330615 143.552722,8.00487899 143.587325,8.0080247 Z M148.003879,10.7778081 C147.660997,11.167876 147.445519,11.6963473 147.357439,12.3632377 L151.538066,12.3632377 C151.494026,11.6523074 151.278548,11.1128263 150.891626,10.7447783 C150.504704,10.3767303 150.02499,10.192709 149.452471,10.192709 C148.82962,10.192709 148.346761,10.3877401 148.003879,10.7778081 Z M151.764556,8.45628606 C152.45032,8.77714842 153.01654,9.28360005 153.46323,9.97565614 C153.865881,10.5859238 154.126971,11.2936978 154.246508,12.0989994 C154.315714,12.5708559 154.344025,13.2503189 154.331442,14.137409 L147.291379,14.137409 C147.329128,15.1692017 147.653131,15.892704 148.263399,16.3079377 C148.634592,16.5658859 149.081276,16.694858 149.603464,16.694858 C150.157109,16.694858 150.606939,16.5375749 150.952967,16.2230039 C151.141709,16.0531356 151.30843,15.817211 151.453132,15.5152229 L154.199323,15.5152229 C154.130117,16.1254905 153.812405,16.745186 153.246178,17.3743279 C152.365379,18.3746635 151.132279,18.8748238 149.546842,18.8748238 C148.238227,18.8748238 147.083769,18.453305 146.083433,17.6102549 C145.083097,16.7672048 144.582937,15.395696 144.582937,13.4956875 C144.582937,11.7152159 145.03434,10.3499984 145.937158,9.39999418 C146.839977,8.44998992 148.011736,7.97499491 149.452471,7.97499491 C150.308104,7.97499491 151.078791,8.13542369 151.764556,8.45628606 Z M162.48508,8.24867027 L165.372827,8.24867027 L161.664054,18.5350889 L158.823493,18.5350889 L155.133594,8.24867027 L158.15346,8.24867027 L160.295677,15.8360836 L162.48508,8.24867027 Z M169.50155,10.7778081 C169.158668,11.167876 168.94319,11.6963473 168.85511,12.3632377 L173.035737,12.3632377 C172.991697,11.6523074 172.776219,11.1128263 172.389297,10.7447783 C172.002375,10.3767303 171.522661,10.192709 170.950142,10.192709 C170.327292,10.192709 169.844432,10.3877401 169.50155,10.7778081 Z M173.262227,8.45628606 C173.947992,8.77714842 174.514211,9.28360005 174.960902,9.97565614 C175.363552,10.5859238 175.624642,11.2936978 175.744179,12.0989994 C175.813385,12.5708559 175.841696,13.2503189 175.829113,14.137409 L168.78905,14.137409 C168.826799,15.1692017 169.150802,15.892704 169.76107,16.3079377 C170.132264,16.5658859 170.578948,16.694858 171.101135,16.694858 C171.65478,16.694858 172.10461,16.5375749 172.450638,16.2230039 C172.639381,16.0531356 172.806101,15.817211 172.950803,15.5152229 L175.696994,15.5152229 C175.627788,16.1254905 175.310076,16.745186 174.743849,17.3743279 C173.86305,18.3746635 172.62995,18.8748238 171.044513,18.8748238 C169.735898,18.8748238 168.58144,18.453305 167.581104,17.6102549 C166.580768,16.7672048 166.080608,15.395696 166.080608,13.4956875 C166.080608,11.7152159 166.532011,10.3499984 167.434829,9.39999418 C168.337648,8.44998992 169.509407,7.97499491 170.950142,7.97499491 C171.805775,7.97499491 172.576462,8.13542369 173.262227,8.45628606 Z M183.355185,8.0080247 C183.389788,8.0111704 183.466857,8.0158889 183.586394,8.02218032 L183.586394,10.7778081 C183.416526,10.7589338 183.265534,10.7463511 183.133414,10.7400597 C183.001294,10.7337683 182.894342,10.7306226 182.812553,10.7306226 C181.730429,10.7306226 181.003781,11.0829368 180.632587,11.7875757 C180.424971,12.1839351 180.321164,12.7941936 180.321164,13.6183695 L180.321164,18.5350889 L177.612721,18.5350889 L177.612721,8.24867027 L180.179608,8.24867027 L180.179608,10.0417157 C180.594841,9.35595104 180.956592,8.88724736 181.264872,8.6355906 C181.768185,8.21406553 182.422483,8.00330615 183.227785,8.00330615 C183.278116,8.00330615 183.320583,8.00487899 183.355185,8.0080247 Z" id="WaiverForever"></path>
                </g>
            </g>
        </g>
    </g>
</svg>
