<svg width="41px" height="26px" viewBox="0 0 41 26" version="1.1" xmlns="http://www.w3.org/2000/svg" xmlns:xlink="http://www.w3.org/1999/xlink">
    <g id="console" stroke="none" stroke-width="1" fill="none" fill-rule="evenodd">
        <g id="2-md" transform="translate(-421.000000, -240.000000)" fill="#FFFFFF">
            <g id="top" transform="translate(382.000000, 218.000000)">
                <g id="logo" transform="translate(39.000000, 22.000000)">
                    <g id="logo-copy-2" transform="translate(0.000000, 0.482464)">
                        <polygon id="Fill-1" points="22.9510633 14.596633 7.29021102 13.4916906 0 16.7975429 22.9510633 18.4168955 40.8017452 9.19921644 34.0517901 8.86471601"></polygon>
                        <polygon id="Fill-2" points="22.9510633 21.2609378 7.29021102 20.1409687 0 23.3818147 22.9510633 25.0011261 40.8017452 15.7833235 34.0517901 15.513253"></polygon>
                        <path d="M38.5662992,0.0625361416 C38.5662992,0.0596131225 38.5641775,0.0571017962 38.563035,0.0548374856 C38.5475304,0.0226431059 38.5146034,0 38.4764945,0 C38.4434043,0 38.4142719,0.0170029141 38.3968087,0.0428572241 L38.3965639,0.0430630705 C37.571471,1.24985828 36.0568694,1.67435476 34.1536312,1.70848409 C31.1367502,1.76204533 22.0996941,1.1107061 22.0996941,1.1107061 L19.1260629,0.963443572 L0,9.63657652 L22.9510633,11.2556409 L33.5493982,5.78276106 C34.5073416,5.23216307 38.7030666,3.05175548 38.5662992,0.0625361416" id="Fill-3"></path>
                    </g>
                </g>
            </g>
        </g>
    </g>
</svg>
